{
  "accessors": [
    {
      "bufferView": 2,
      "componentType": 5126,
      "count": 4289,
      "max": [
        0.08637404441833496,
        0.39536750316619873,
        0.24948042631149292
      ],
      "min": [
        -0.5434303879737854,
        0.00025199889205396175,
        -0.24948042631149292
      ],
      "type": "VEC3"
    },
    {
      "bufferView": 2,
      "byteOffset": 51468,
      "componentType": 5126,
      "count": 4289,
      "max": [
        1.0,
        0.9995918869972229,
        1.0
      ],
      "min": [
        -1.0,
        -0.9999696016311646,
        -1.0
      ],
      "type": "VEC3"
    },
    {
      "bufferView": 3,
      "componentType": 5126,
      "count": 4289,
      "max": [
        0.999999463558197,
        0.9999331831932068,
        1.0,
        1.0
      ],
      "min": [
        -0.9999939799308777,
        -1.0,
        -1.0,
        -1.0
      ],
      "type": "VEC4"
    },
    {
      "bufferView": 1,
      "componentType": 5126,
      "count": 4289,
      "max": [
        1.9970703125,
        0.9970703125
      ],
      "min": [
        0.0019989013671875,
        0.0031833648681640625
      ],
      "type": "VEC2"
    },
    {
      "bufferView": 1,
      "byteOffset": 34312,
      "componentType": 5126,
      "count": 4289,
      "max": [
        1.9970703125,
        0.9970703125
      ],
      "min": [
        0.0019989013671875,
        0.0031833648681640625
      ],
      "type": "VEC2"
    },
    {
      "bufferView": 1,
      "byteOffset": 68624,
      "componentType": 5126,
      "count": 4289,
      "max": [
        1.9970703125,
        0.9970703125
      ],
      "min": [
        0.0019989013671875,
        0.0031833648681640625
      ],
      "type": "VEC2"
    },
    {
      "bufferView": 1,
      "byteOffset": 102936,
      "componentType": 5126,
      "count": 4289,
      "max": [
        1.015625,
        3.1015625
      ],
      "min": [
        0.0019989013671875,
        -2.10546875
      ],
      "type": "VEC2"
    },
    {
      "bufferView": 1,
      "byteOffset": 137248,
      "componentType": 5126,
      "count": 4289,
      "max": [
        1.9970703125,
        0.9970703125
      ],
      "min": [
        0.0019989013671875,
        0.0031833648681640625
      ],
      "type": "VEC2"
    },
    {
      "bufferView": 0,
      "componentType": 5125,
      "count": 9894,
      "type": "SCALAR"
    },
    {
      "bufferView": 2,
      "byteOffset": 102936,
      "componentType": 5126,
      "count": 65534,
      "max": [
        0.03416067361831665,
        1.0259742736816406,
        0.3913840651512146
      ],
      "min": [
        -1.7024588584899902,
        0.15450891852378845,
        -0.39182406663894653
      ],
      "type": "VEC3"
    },
    {
      "bufferView": 2,
      "byteOffset": 889344,
      "componentType": 5126,
      "count": 65534,
      "max": [
        1.0,
        1.0,
        1.0
      ],
      "min": [
        -1.0,
        -1.0,
        -1.0
      ],
      "type": "VEC3"
    },
    {
      "bufferView": 3,
      "byteOffset": 68624,
      "componentType": 5126,
      "count": 65534,
      "max": [
        1.0,
        1.0,
        1.0,
        1.0
      ],
      "min": [
        -1.0,
        -1.0,
        -1.0,
        -1.0
      ],
      "type": "VEC4"
    },
    {
      "bufferView": 1,
      "byteOffset": 171560,
      "componentType": 5126,
      "count": 65534,
      "max": [
        4.9990234375,
        1.0
      ],
      "min": [
        0.0,
        0.0019292235374450684
      ],
      "type": "VEC2"
    },
    {
      "bufferView": 1,
      "byteOffset": 695832,
      "componentType": 5126,
      "count": 65534,
      "max": [
        4.9990234375,
        1.0
      ],
      "min": [
        0.0,
        0.0019292235374450684
      ],
      "type": "VEC2"
    },
    {
      "bufferView": 1,
      "byteOffset": 1220104,
      "componentType": 5126,
      "count": 65534,
      "max": [
        4.9990234375,
        1.0
      ],
      "min": [
        0.0,
        0.0019292235374450684
      ],
      "type": "VEC2"
    },
    {
      "bufferView": 1,
      "byteOffset": 1744376,
      "componentType": 5126,
      "count": 65534,
      "max": [
        0.9990234375,
        1.0
      ],
      "min": [
        0.0,
        0.0019292235374450684
      ],
      "type": "VEC2"
    },
    {
      "bufferView": 1,
      "byteOffset": 2268648,
      "componentType": 5126,
      "count": 65534,
      "max": [
        0.8116154074668884,
        0.9049999713897705
      ],
      "min": [
        0.0950000062584877,
        0.09500002861022949
      ],
      "type": "VEC2"
    },
    {
      "bufferView": 1,
      "byteOffset": 2792920,
      "componentType": 5126,
      "count": 65534,
      "max": [
        0.0,
        1.0
      ],
      "min": [
        0.0,
        1.0
      ],
      "type": "VEC2"
    },
    {
      "bufferView": 1,
      "byteOffset": 3317192,
      "componentType": 5126,
      "count": 65534,
      "max": [
        4.9990234375,
        1.0
      ],
      "min": [
        0.0,
        0.0019292235374450684
      ],
      "type": "VEC2"
    },
    {
      "bufferView": 0,
      "byteOffset": 39576,
      "componentType": 5125,
      "count": 219174,
      "type": "SCALAR"
    },
    {
      "bufferView": 2,
      "byteOffset": 1675752,
      "componentType": 5126,
      "count": 39999,
      "max": [
        0.04976832866668701,
        0.9857378005981445,
        0.2368173450231552
      ],
      "min": [
        -1.584587812423706,
        0.15555724501609802,
        -0.2736806571483612
      ],
      "type": "VEC3"
    },
    {
      "bufferView": 2,
      "byteOffset": 2155740,
      "componentType": 5126,
      "count": 39999,
      "max": [
        1.0,
        1.0,
        1.0
      ],
      "min": [
        -1.0,
        -1.0,
        -1.0
      ],
      "type": "VEC3"
    },
    {
      "bufferView": 3,
      "byteOffset": 1117168,
      "componentType": 5126,
      "count": 39999,
      "max": [
        1.0,
        1.0,
        1.0,
        1.0
      ],
      "min": [
        -1.0,
        -1.0,
        -1.0,
        -1.0
      ],
      "type": "VEC4"
    },
    {
      "bufferView": 1,
      "byteOffset": 3841464,
      "componentType": 5126,
      "count": 39999,
      "max": [
        4.998996734619141,
        0.9990234375
      ],
      "min": [
        4.0009765625,
        0.000520169734954834
      ],
      "type": "VEC2"
    },
    {
      "bufferView": 1,
      "byteOffset": 4161456,
      "componentType": 5126,
      "count": 39999,
      "max": [
        4.998996734619141,
        0.9990234375
      ],
      "min": [
        4.0009765625,
        0.000520169734954834
      ],
      "type": "VEC2"
    },
    {
      "bufferView": 1,
      "byteOffset": 4481448,
      "componentType": 5126,
      "count": 39999,
      "max": [
        4.998996734619141,
        0.9990234375
      ],
      "min": [
        4.0009765625,
        0.000520169734954834
      ],
      "type": "VEC2"
    },
    {
      "bufferView": 1,
      "byteOffset": 4801440,
      "componentType": 5126,
      "count": 39999,
      "max": [
        0.9989967346191406,
        0.9990234375
      ],
      "min": [
        0.0009765625,
        0.000520169734954834
      ],
      "type": "VEC2"
    },
    {
      "bufferView": 1,
      "byteOffset": 5121432,
      "componentType": 5126,
      "count": 39999,
      "max": [
        0.808574914932251,
        0.9049999713897705
      ],
      "min": [
        0.0950000062584877,
        0.09500002861022949
      ],
      "type": "VEC2"
    },
    {
      "bufferView": 1,
      "byteOffset": 5441424,
      "componentType": 5126,
      "count": 39999,
      "max": [
        0.0,
        1.0
      ],
      "min": [
        0.0,
        1.0
      ],
      "type": "VEC2"
    },
    {
      "bufferView": 1,
      "byteOffset": 5761416,
      "componentType": 5126,
      "count": 39999,
      "max": [
        4.998996734619141,
        0.9990234375
      ],
      "min": [
        4.0009765625,
        0.000520169734954834
      ],
      "type": "VEC2"
    },
    {
      "bufferView": 0,
      "byteOffset": 916272,
      "componentType": 5125,
      "count": 118806,
      "type": "SCALAR"
    },
    {
      "bufferView": 2,
      "byteOffset": 2635728,
      "componentType": 5126,
      "count": 87,
      "max": [
        -0.6810028553009033,
        0.4611668884754181,
        -0.11337996274232864
      ],
      "min": [
        -1.465461015701294,
        0.21064059436321259,
        -0.12429193407297134
      ],
      "type": "VEC3"
    },
    {
      "bufferView": 2,
      "byteOffset": 2636772,
      "componentType": 5126,
      "count": 87,
      "max": [
        0.0,
        0.0,
        1.0
      ],
      "min": [
        0.0,
        0.0,
        -1.0
      ],
      "type": "VEC3"
    },
    {
      "bufferView": 3,
      "byteOffset": 1757152,
      "componentType": 5126,
      "count": 87,
      "max": [
        1.0,
        -1.9297782273497432e-05,
        0.0,
        1.0
      ],
      "min": [
        -2.449514568070299e-06,
        -1.0,
        0.0,
        -1.0
      ],
      "type": "VEC4"
    },
    {
      "bufferView": 1,
      "byteOffset": 6081408,
      "componentType": 5126,
      "count": 87,
      "max": [
        0.9859362840652466,
        0.9877598285675049
      ],
      "min": [
        0.011910825967788696,
        0.014911293983459473
      ],
      "type": "VEC2"
    },
    {
      "bufferView": 1,
      "byteOffset": 6082104,
      "componentType": 5126,
      "count": 87,
      "max": [
        0.9859362840652466,
        0.9877598285675049
      ],
      "min": [
        0.011910825967788696,
        0.014911293983459473
      ],
      "type": "VEC2"
    },
    {
      "bufferView": 1,
      "byteOffset": 6082800,
      "componentType": 5126,
      "count": 87,
      "max": [
        0.3050000071525574,
        0.7049999833106995
      ],
      "min": [
        0.29500001668930054,
        0.6949999928474426
      ],
      "type": "VEC2"
    },
    {
      "bufferView": 1,
      "byteOffset": 6083496,
      "componentType": 5126,
      "count": 87,
      "max": [
        0.0,
        1.0
      ],
      "min": [
        0.0,
        1.0
      ],
      "type": "VEC2"
    },
    {
      "bufferView": 1,
      "byteOffset": 6084192,
      "componentType": 5126,
      "count": 87,
      "max": [
        0.9859362840652466,
        0.9877598285675049
      ],
      "min": [
        0.011910825967788696,
        0.014911293983459473
      ],
      "type": "VEC2"
    },
    {
      "bufferView": 1,
      "byteOffset": 6084888,
      "componentType": 5126,
      "count": 87,
      "max": [
        0.9859362840652466,
        0.9877598285675049
      ],
      "min": [
        0.011910825967788696,
        0.014911293983459473
      ],
      "type": "VEC2"
    },
    {
      "bufferView": 1,
      "byteOffset": 6085584,
      "componentType": 5126,
      "count": 87,
      "max": [
        0.9859362840652466,
        0.9877598285675049
      ],
      "min": [
        0.011910825967788696,
        0.014911293983459473
      ],
      "type": "VEC2"
    },
    {
      "bufferView": 0,
      "byteOffset": 1391496,
      "componentType": 5125,
      "count": 252,
      "type": "SCALAR"
    },
    {
      "bufferView": 2,
      "byteOffset": 2637816,
      "componentType": 5126,
      "count": 3101,
      "max": [
        0.05822122097015381,
        1.1396615505218506,
        0.3735473155975342
      ],
      "min": [
        -1.6565126180648804,
        0.6696912050247192,
        -0.3739873170852661
      ],
      "type": "VEC3"
    },
    {
      "bufferView": 2,
      "byteOffset": 2675028,
      "componentType": 5126,
      "count": 3101,
      "max": [
        0.9995982050895691,
        0.9996903538703918,
        0.9999688863754272
      ],
      "min": [
        -1.0,
        -0.9984552264213562,
        -0.9999688863754272
      ],
      "type": "VEC3"
    },
    {
      "bufferView": 3,
      "byteOffset": 1758544,
      "componentType": 5126,
      "count": 3101,
      "max": [
        0.9994493126869202,
        0.9956983327865601,
        0.9999997615814209,
        1.0
      ],
      "min": [
        -0.9912852644920349,
        -0.9993589520454407,
        -0.9999996423721313,
        -1.0
      ],
      "type": "VEC4"
    },
    {
      "bufferView": 1,
      "byteOffset": 6086280,
      "componentType": 5126,
      "count": 3101,
      "max": [
        2.987278461456299,
        0.9941209554672241
      ],
      "min": [
        0.48691442608833313,
        0.0038725733757019043
      ],
      "type": "VEC2"
    },
    {
      "bufferView": 1,
      "byteOffset": 6111088,
      "componentType": 5126,
      "count": 3101,
      "max": [
        0.9872784614562988,
        0.9941209554672241
      ],
      "min": [
        0.011741340160369873,
        0.0038725733757019043
      ],
      "type": "VEC2"
    },
    {
      "bufferView": 1,
      "byteOffset": 6135896,
      "componentType": 5126,
      "count": 3101,
      "max": [
        0.8050000071525574,
        0.9050000309944153
      ],
      "min": [
        0.7950000166893005,
        0.8949999809265137
      ],
      "type": "VEC2"
    },
    {
      "bufferView": 1,
      "byteOffset": 6160704,
      "componentType": 5126,
      "count": 3101,
      "max": [
        0.9929485321044922,
        1.0
      ],
      "min": [
        0.0,
        0.1249535083770752
      ],
      "type": "VEC2"
    },
    {
      "bufferView": 1,
      "byteOffset": 6185512,
      "componentType": 5126,
      "count": 3101,
      "max": [
        2.987278461456299,
        0.9941209554672241
      ],
      "min": [
        0.48691442608833313,
        0.0038725733757019043
      ],
      "type": "VEC2"
    },
    {
      "bufferView": 1,
      "byteOffset": 6210320,
      "componentType": 5126,
      "count": 3101,
      "max": [
        2.987278461456299,
        0.9941209554672241
      ],
      "min": [
        0.48691442608833313,
        0.0038725733757019043
      ],
      "type": "VEC2"
    },
    {
      "bufferView": 1,
      "byteOffset": 6235128,
      "componentType": 5126,
      "count": 3101,
      "max": [
        2.987278461456299,
        0.9941209554672241
      ],
      "min": [
        0.48691442608833313,
        0.0038725733757019043
      ],
      "type": "VEC2"
    },
    {
      "bufferView": 0,
      "byteOffset": 1392504,
      "componentType": 5125,
      "count": 13482,
      "type": "SCALAR"
    },
    {
      "bufferView": 2,
      "byteOffset": 2712240,
      "componentType": 5126,
      "count": 3144,
      "max": [
        0.05822122097015381,
        1.1396615505218506,
        0.3735473155975342
      ],
      "min": [
        -1.6565126180648804,
        0.6696912050247192,
        -0.3739873170852661
      ],
      "type": "VEC3"
    },
    {
      "bufferView": 2,
      "byteOffset": 2749968,
      "componentType": 5126,
      "count": 3144,
      "max": [
        0.9995982050895691,
        0.9996903538703918,
        0.9999688863754272
      ],
      "min": [
        -1.0,
        -0.9984552264213562,
        -0.9999688863754272
      ],
      "type": "VEC3"
    },
    {
      "bufferView": 3,
      "byteOffset": 1808160,
      "componentType": 5126,
      "count": 3144,
      "max": [
        0.9994493126869202,
        0.9956983327865601,
        0.9999997615814209,
        1.0
      ],
      "min": [
        -0.9912852644920349,
        -0.9993589520454407,
        -0.9999996423721313,
        -1.0
      ],
      "type": "VEC4"
    },
    {
      "bufferView": 1,
      "byteOffset": 6259936,
      "componentType": 5126,
      "count": 3144,
      "max": [
        2.8186943531036377,
        0.9941209554672241
      ],
      "min": [
        0.011741340160369873,
        0.0038725733757019043
      ],
      "type": "VEC2"
    },
    {
      "bufferView": 1,
      "byteOffset": 6285088,
      "componentType": 5126,
      "count": 3144,
      "max": [
        0.9872784614562988,
        0.9941209554672241
      ],
      "min": [
        0.011741340160369873,
        0.0038725733757019043
      ],
      "type": "VEC2"
    },
    {
      "bufferView": 1,
      "byteOffset": 6310240,
      "componentType": 5126,
      "count": 3144,
      "max": [
        0.8050000071525574,
        0.9050000309944153
      ],
      "min": [
        0.7950000166893005,
        0.8949999809265137
      ],
      "type": "VEC2"
    },
    {
      "bufferView": 1,
      "byteOffset": 6335392,
      "componentType": 5126,
      "count": 3144,
      "max": [
        0.9929485321044922,
        1.0
      ],
      "min": [
        0.0,
        0.1249535083770752
      ],
      "type": "VEC2"
    },
    {
      "bufferView": 1,
      "byteOffset": 6360544,
      "componentType": 5126,
      "count": 3144,
      "max": [
        2.8186943531036377,
        0.9941209554672241
      ],
      "min": [
        0.011741340160369873,
        0.0038725733757019043
      ],
      "type": "VEC2"
    },
    {
      "bufferView": 1,
      "byteOffset": 6385696,
      "componentType": 5126,
      "count": 3144,
      "max": [
        2.8186943531036377,
        0.9941209554672241
      ],
      "min": [
        0.011741340160369873,
        0.0038725733757019043
      ],
      "type": "VEC2"
    },
    {
      "bufferView": 1,
      "byteOffset": 6410848,
      "componentType": 5126,
      "count": 3144,
      "max": [
        2.8186943531036377,
        0.9941209554672241
      ],
      "min": [
        0.011741340160369873,
        0.0038725733757019043
      ],
      "type": "VEC2"
    },
    {
      "bufferView": 0,
      "byteOffset": 1446432,
      "componentType": 5125,
      "count": 13686,
      "type": "SCALAR"
    },
    {
      "bufferView": 2,
      "byteOffset": 2787696,
      "componentType": 5126,
      "count": 2462,
      "max": [
        0.06495469808578491,
        0.9831167459487915,
        0.23258645832538605
      ],
      "min": [
        -1.5726945400238037,
        0.6699703931808472,
        -0.2330264300107956
      ],
      "type": "VEC3"
    },
    {
      "bufferView": 2,
      "byteOffset": 2817240,
      "componentType": 5126,
      "count": 2462,
      "max": [
        1.0,
        1.0,
        1.0
      ],
      "min": [
        -1.0,
        -0.9998784065246582,
        -1.0
      ],
      "type": "VEC3"
    },
    {
      "bufferView": 3,
      "byteOffset": 1858464,
      "componentType": 5126,
      "count": 2462,
      "max": [
        0.9999998211860657,
        0.9999932646751404,
        1.0,
        1.0
      ],
      "min": [
        -1.0,
        -1.0,
        -1.0,
        -1.0
      ],
      "type": "VEC4"
    },
    {
      "bufferView": 1,
      "byteOffset": 6436000,
      "componentType": 5126,
      "count": 2462,
      "max": [
        3.994589328765869,
        0.9898461699485779
      ],
      "min": [
        3.0053882598876953,
        0.005717158317565918
      ],
      "type": "VEC2"
    },
    {
      "bufferView": 1,
      "byteOffset": 6455696,
      "componentType": 5126,
      "count": 2462,
      "max": [
        0.9945892095565796,
        0.9898461699485779
      ],
      "min": [
        0.0053881555795669556,
        0.005076050758361816
      ],
      "type": "VEC2"
    },
    {
      "bufferView": 1,
      "byteOffset": 6475392,
      "componentType": 5126,
      "count": 2462,
      "max": [
        0.8050000071525574,
        0.9049999713897705
      ],
      "min": [
        0.7950000166893005,
        0.8949999809265137
      ],
      "type": "VEC2"
    },
    {
      "bufferView": 1,
      "byteOffset": 6495088,
      "componentType": 5126,
      "count": 2462,
      "max": [
        3.994589328765869,
        0.9898461699485779
      ],
      "min": [
        3.0053882598876953,
        0.005717158317565918
      ],
      "type": "VEC2"
    },
    {
      "bufferView": 1,
      "byteOffset": 6514784,
      "componentType": 5126,
      "count": 2462,
      "max": [
        0.0,
        1.0
      ],
      "min": [
        0.0,
        1.0
      ],
      "type": "VEC2"
    },
    {
      "bufferView": 1,
      "byteOffset": 6534480,
      "componentType": 5126,
      "count": 2462,
      "max": [
        3.994589328765869,
        0.9898461699485779
      ],
      "min": [
        3.0053882598876953,
        0.005717158317565918
      ],
      "type": "VEC2"
    },
    {
      "bufferView": 1,
      "byteOffset": 6554176,
      "componentType": 5126,
      "count": 2462,
      "max": [
        3.994589328765869,
        0.9898461699485779
      ],
      "min": [
        3.0053882598876953,
        0.005717158317565918
      ],
      "type": "VEC2"
    },
    {
      "bufferView": 1,
      "byteOffset": 6573872,
      "componentType": 5126,
      "count": 2462,
      "max": [
        3.994589328765869,
        0.9898461699485779
      ],
      "min": [
        3.0053882598876953,
        0.005717158317565918
      ],
      "type": "VEC2"
    },
    {
      "bufferView": 0,
      "byteOffset": 1501176,
      "componentType": 5125,
      "count": 10413,
      "type": "SCALAR"
    },
    {
      "bufferView": 2,
      "byteOffset": 2846784,
      "componentType": 5126,
      "count": 650,
      "max": [
        -0.6776990294456482,
        0.46497514843940735,
        -0.11374756693840027
      ],
      "min": [
        -1.471333622932434,
        0.20574311912059784,
        -0.1295919567346573
      ],
      "type": "VEC3"
    },
    {
      "bufferView": 2,
      "byteOffset": 2854584,
      "componentType": 5126,
      "count": 650,
      "max": [
        0.9997535347938538,
        0.9999696016311646,
        1.0
      ],
      "min": [
        -0.9997504353523254,
        -0.9997192025184631,
        -1.0
      ],
      "type": "VEC3"
    },
    {
      "bufferView": 3,
      "byteOffset": 1897856,
      "componentType": 5126,
      "count": 650,
      "max": [
        0.999934732913971,
        0.9998767971992493,
        0.0017400869401171803,
        -1.0
      ],
      "min": [
        -0.9999692440032959,
        -0.9995037913322449,
        -0.0014474166091531515,
        -1.0
      ],
      "type": "VEC4"
    },
    {
      "bufferView": 1,
      "byteOffset": 6593568,
      "componentType": 5126,
      "count": 650,
      "max": [
        31.997657775878906,
        0.9516152739524841
      ],
      "min": [
        -25.663728713989258,
        0.018833160400390625
      ],
      "type": "VEC2"
    },
    {
      "bufferView": 1,
      "byteOffset": 6598768,
      "componentType": 5126,
      "count": 650,
      "max": [
        31.997657775878906,
        0.9516152739524841
      ],
      "min": [
        -25.663728713989258,
        0.018833160400390625
      ],
      "type": "VEC2"
    },
    {
      "bufferView": 1,
      "byteOffset": 6603968,
      "componentType": 5126,
      "count": 650,
      "max": [
        0.6050000190734863,
        0.4049999713897705
      ],
      "min": [
        0.5950000286102295,
        0.39499998092651367
      ],
      "type": "VEC2"
    },
    {
      "bufferView": 1,
      "byteOffset": 6609168,
      "componentType": 5126,
      "count": 650,
      "max": [
        0.0,
        1.0
      ],
      "min": [
        0.0,
        1.0
      ],
      "type": "VEC2"
    },
    {
      "bufferView": 1,
      "byteOffset": 6614368,
      "componentType": 5126,
      "count": 650,
      "max": [
        31.997657775878906,
        0.9516152739524841
      ],
      "min": [
        -25.663728713989258,
        0.018833160400390625
      ],
      "type": "VEC2"
    },
    {
      "bufferView": 1,
      "byteOffset": 6619568,
      "componentType": 5126,
      "count": 650,
      "max": [
        31.997657775878906,
        0.9516152739524841
      ],
      "min": [
        -25.663728713989258,
        0.018833160400390625
      ],
      "type": "VEC2"
    },
    {
      "bufferView": 1,
      "byteOffset": 6624768,
      "componentType": 5126,
      "count": 650,
      "max": [
        31.997657775878906,
        0.9516152739524841
      ],
      "min": [
        -25.663728713989258,
        0.018833160400390625
      ],
      "type": "VEC2"
    },
    {
      "bufferView": 0,
      "byteOffset": 1542828,
      "componentType": 5125,
      "count": 1836,
      "type": "SCALAR"
    },
    {
      "bufferView": 2,
      "byteOffset": 2862384,
      "componentType": 5126,
      "count": 70,
      "max": [
        -0.24030470848083496,
        1.1396615505218506,
        0.13469524681568146
      ],
      "min": [
        -0.2957378625869751,
        1.0545614957809448,
        -0.135135218501091
      ],
      "type": "VEC3"
    },
    {
      "bufferView": 2,
      "byteOffset": 2863224,
      "componentType": 5126,
      "count": 70,
      "max": [
        0.20450741052627563,
        0.9802834391593933,
        0.7159131169319153
      ],
      "min": [
        -0.9303075671195984,
        -0.44139009714126587,
        -0.7191771864891052
      ],
      "type": "VEC3"
    },
    {
      "bufferView": 3,
      "byteOffset": 1908256,
      "componentType": 5126,
      "count": 70,
      "max": [
        0.6448171138763428,
        0.9270645380020142,
        0.9999908804893494,
        -1.0
      ],
      "min": [
        -0.6535086631774902,
        -0.9221115708351135,
        -0.3886001408100128,
        -1.0
      ],
      "type": "VEC4"
    },
    {
      "bufferView": 1,
      "byteOffset": 6629968,
      "componentType": 5126,
      "count": 70,
      "max": [
        2.578486204147339,
        0.49441105127334595
      ],
      "min": [
        2.0371265411376953,
        0.470193088054657
      ],
      "type": "VEC2"
    },
    {
      "bufferView": 1,
      "byteOffset": 6630528,
      "componentType": 5126,
      "count": 70,
      "max": [
        0.5784862637519836,
        0.49441105127334595
      ],
      "min": [
        0.03712660074234009,
        0.470193088054657
      ],
      "type": "VEC2"
    },
    {
      "bufferView": 1,
      "byteOffset": 6631088,
      "componentType": 5126,
      "count": 70,
      "max": [
        0.7970467209815979,
        0.9049999713897705
      ],
      "min": [
        0.795087456703186,
        0.9014692306518555
      ],
      "type": "VEC2"
    },
    {
      "bufferView": 1,
      "byteOffset": 6631648,
      "componentType": 5126,
      "count": 70,
      "max": [
        0.0,
        1.0
      ],
      "min": [
        0.0,
        1.0
      ],
      "type": "VEC2"
    },
    {
      "bufferView": 1,
      "byteOffset": 6632208,
      "componentType": 5126,
      "count": 70,
      "max": [
        2.578486204147339,
        0.49441105127334595
      ],
      "min": [
        2.0371265411376953,
        0.470193088054657
      ],
      "type": "VEC2"
    },
    {
      "bufferView": 1,
      "byteOffset": 6632768,
      "componentType": 5126,
      "count": 70,
      "max": [
        2.578486204147339,
        0.49441105127334595
      ],
      "min": [
        2.0371265411376953,
        0.470193088054657
      ],
      "type": "VEC2"
    },
    {
      "bufferView": 0,
      "byteOffset": 1550172,
      "componentType": 5125,
      "count": 204,
      "type": "SCALAR"
    },
    {
      "bufferView": 2,
      "byteOffset": 2864064,
      "componentType": 5126,
      "count": 61150,
      "max": [
        0.13771897554397583,
        1.0632683038711548,
        0.24759052693843842
      ],
      "min": [
        -1.7260074615478516,
        0.1344340443611145,
        -0.25154200196266174
      ],
      "type": "VEC3"
    },
    {
      "bufferView": 2,
      "byteOffset": 3597864,
      "componentType": 5126,
      "count": 61150,
      "max": [
        1.0,
        1.0,
        1.0
      ],
      "min": [
        -1.0,
        -1.0,
        -1.0
      ],
      "type": "VEC3"
    },
    {
      "bufferView": 3,
      "byteOffset": 1909376,
      "componentType": 5126,
      "count": 61150,
      "max": [
        1.0,
        0.9999982118606567,
        1.0,
        1.0
      ],
      "min": [
        -1.0,
        -1.0,
        -1.0,
        -1.0
      ],
      "type": "VEC4"
    },
    {
      "bufferView": 1,
      "byteOffset": 6633328,
      "componentType": 5126,
      "count": 61150,
      "max": [
        0.9980231523513794,
        0.9981417655944824
      ],
      "min": [
        0.0015630722045898438,
        0.0006444454193115234
      ],
      "type": "VEC2"
    },
    {
      "bufferView": 1,
      "byteOffset": 7122528,
      "componentType": 5126,
      "count": 61150,
      "max": [
        0.9980231523513794,
        0.9981417655944824
      ],
      "min": [
        0.0015630722045898438,
        0.0006444454193115234
      ],
      "type": "VEC2"
    },
    {
      "bufferView": 1,
      "byteOffset": 7611728,
      "componentType": 5126,
      "count": 61150,
      "max": [
        0.9980231523513794,
        0.9981417655944824
      ],
      "min": [
        0.0015630722045898438,
        0.0006444454193115234
      ],
      "type": "VEC2"
    },
    {
      "bufferView": 1,
      "byteOffset": 8100928,
      "componentType": 5126,
      "count": 61150,
      "max": [
        0.9980231523513794,
        0.9981417655944824
      ],
      "min": [
        0.0015630722045898438,
        0.0006444454193115234
      ],
      "type": "VEC2"
    },
    {
      "bufferView": 1,
      "byteOffset": 8590128,
      "componentType": 5126,
      "count": 61150,
      "max": [
        0.9980231523513794,
        1.0
      ],
      "min": [
        0.0,
        0.000644385814666748
      ],
      "type": "VEC2"
    },
    {
      "bufferView": 1,
      "byteOffset": 9079328,
      "componentType": 5126,
      "count": 61150,
      "max": [
        0.7972168326377869,
        1.0
      ],
      "min": [
        0.0,
        0.09500002861022949
      ],
      "type": "VEC2"
    },
    {
      "bufferView": 1,
      "byteOffset": 9568528,
      "componentType": 5126,
      "count": 61150,
      "max": [
        1.002029538154602,
        1.0
      ],
      "min": [
        0.0,
        0.0042000412940979
      ],
      "type": "VEC2"
    },
    {
      "bufferView": 1,
      "byteOffset": 10057728,
      "componentType": 5126,
      "count": 61150,
      "max": [
        0.9980231523513794,
        0.9981417655944824
      ],
      "min": [
        0.0015630722045898438,
        0.0006444454193115234
      ],
      "type": "VEC2"
    },
    {
      "bufferView": 0,
      "byteOffset": 1550988,
      "componentType": 5125,
      "count": 279342,
      "type": "SCALAR"
    },
    {
      "bufferView": 2,
      "byteOffset": 4331664,
      "componentType": 5126,
      "count": 30,
      "max": [
        -0.10183405876159668,
        0.9459532499313354,
        0.07496731728315353
      ],
      "min": [
        -0.12356805801391602,
        0.8790527582168579,
        -0.07534392178058624
      ],
      "type": "VEC3"
    },
    {
      "bufferView": 2,
      "byteOffset": 4332024,
      "componentType": 5126,
      "count": 30,
      "max": [
        -0.9493909478187561,
        0.31409698724746704,
        0.0
      ],
      "min": [
        -0.9518056511878967,
        0.30670180916786194,
        0.0
      ],
      "type": "VEC3"
    },
    {
      "bufferView": 1,
      "byteOffset": 10546928,
      "componentType": 5126,
      "count": 30,
      "max": [
        0.9942513704299927,
        0.5081272721290588
      ],
      "min": [
        0.006517618894577026,
        0.011655032634735107
      ],
      "type": "VEC2"
    },
    {
      "bufferView": 1,
      "byteOffset": 10547168,
      "componentType": 5126,
      "count": 30,
      "max": [
        0.9901227951049805,
        0.7185157537460327
      ],
      "min": [
        0.008073750883340836,
        0.28147685527801514
      ],
      "type": "VEC2"
    },
    {
      "bufferView": 1,
      "byteOffset": 10547408,
      "componentType": 5126,
      "count": 30,
      "max": [
        0.8050000071525574,
        0.9049999713897705
      ],
      "min": [
        0.7950000166893005,
        0.8949999809265137
      ],
      "type": "VEC2"
    },
    {
      "bufferView": 1,
      "byteOffset": 10547648,
      "componentType": 5126,
      "count": 30,
      "max": [
        0.0,
        1.0
      ],
      "min": [
        0.0,
        1.0
      ],
      "type": "VEC2"
    },
    {
      "bufferView": 0,
      "byteOffset": 2668356,
      "componentType": 5125,
      "count": 78,
      "type": "SCALAR"
    },
    {
      "bufferView": 2,
      "byteOffset": 4332384,
      "componentType": 5126,
      "count": 18189,
      "max": [
        -0.004775285720825195,
        1.0444363355636597,
        0.33882153034210205
      ],
      "min": [
        -0.36405685544013977,
        0.6742360591888428,
        -0.3290293514728546
      ],
      "type": "VEC3"
    },
    {
      "bufferView": 2,
      "byteOffset": 4550652,
      "componentType": 5126,
      "count": 18189,
      "max": [
        1.0,
        1.0,
        1.0
      ],
      "min": [
        -1.0,
        -1.0,
        -1.0
      ],
      "type": "VEC3"
    },
    {
      "bufferView": 3,
      "byteOffset": 2887776,
      "componentType": 5126,
      "count": 18189,
      "max": [
        1.0,
        1.0,
        1.0,
        1.0
      ],
      "min": [
        -1.0,
        -1.0,
        -1.0,
        -1.0
      ],
      "type": "VEC4"
    },
    {
      "bufferView": 1,
      "byteOffset": 10547888,
      "componentType": 5126,
      "count": 18189,
      "max": [
        1.9985452890396118,
        0.9980824589729309
      ],
      "min": [
        1.001389503479004,
        0.0007902383804321289
      ],
      "type": "VEC2"
    },
    {
      "bufferView": 1,
      "byteOffset": 10693400,
      "componentType": 5126,
      "count": 18189,
      "max": [
        1.9985452890396118,
        0.9980824589729309
      ],
      "min": [
        1.001389503479004,
        0.0007902383804321289
      ],
      "type": "VEC2"
    },
    {
      "bufferView": 1,
      "byteOffset": 10838912,
      "componentType": 5126,
      "count": 18189,
      "max": [
        1.9985452890396118,
        0.9980824589729309
      ],
      "min": [
        1.001389503479004,
        0.0007902383804321289
      ],
      "type": "VEC2"
    },
    {
      "bufferView": 1,
      "byteOffset": 10984424,
      "componentType": 5126,
      "count": 18189,
      "max": [
        0.9985452890396118,
        0.9980824589729309
      ],
      "min": [
        0.0013895630836486816,
        0.0007902383804321289
      ],
      "type": "VEC2"
    },
    {
      "bufferView": 1,
      "byteOffset": 11129936,
      "componentType": 5126,
      "count": 18189,
      "max": [
        0.8050000071525574,
        0.9049999713897705
      ],
      "min": [
        0.0950000062584877,
        0.09500002861022949
      ],
      "type": "VEC2"
    },
    {
      "bufferView": 1,
      "byteOffset": 11275448,
      "componentType": 5126,
      "count": 18189,
      "max": [
        0.0,
        1.0
      ],
      "min": [
        0.0,
        1.0
      ],
      "type": "VEC2"
    },
    {
      "bufferView": 1,
      "byteOffset": 11420960,
      "componentType": 5126,
      "count": 18189,
      "max": [
        1.9985452890396118,
        0.9980824589729309
      ],
      "min": [
        1.001389503479004,
        0.0007902383804321289
      ],
      "type": "VEC2"
    },
    {
      "bufferView": 0,
      "byteOffset": 2668668,
      "componentType": 5125,
      "count": 62307,
      "type": "SCALAR"
    },
    {
      "bufferView": 2,
      "byteOffset": 4768920,
      "componentType": 5126,
      "count": 6986,
      "max": [
        -0.38126248121261597,
        0.6849303245544434,
        0.23085539042949677
      ],
      "min": [
        -1.1561064720153809,
        0.13567186892032623,
        -0.16467174887657166
      ],
      "type": "VEC3"
    },
    {
      "bufferView": 2,
      "byteOffset": 4852752,
      "componentType": 5126,
      "count": 6986,
      "max": [
        1.0,
        1.0,
        1.0
      ],
      "min": [
        -1.0,
        -0.999876856803894,
        -1.0
      ],
      "type": "VEC3"
    },
    {
      "bufferView": 3,
      "byteOffset": 3178800,
      "componentType": 5126,
      "count": 6986,
      "max": [
        0.9999989867210388,
        0.9997192025184631,
        0.9999999403953552,
        1.0
      ],
      "min": [
        -1.0,
        -1.0,
        -0.9999849200248718,
        -1.0
      ],
      "type": "VEC4"
    },
    {
      "bufferView": 1,
      "byteOffset": 11566472,
      "componentType": 5126,
      "count": 6986,
      "max": [
        0.9985926151275635,
        0.9972246289253235
      ],
      "min": [
        0.0020964378491044044,
        0.0012710094451904297
      ],
      "type": "VEC2"
    },
    {
      "bufferView": 1,
      "byteOffset": 11622360,
      "componentType": 5126,
      "count": 6986,
      "max": [
        0.9985926151275635,
        0.9972246289253235
      ],
      "min": [
        0.0020964378491044044,
        0.0012710094451904297
      ],
      "type": "VEC2"
    },
    {
      "bufferView": 1,
      "byteOffset": 11678248,
      "componentType": 5126,
      "count": 6986,
      "max": [
        0.8050000071525574,
        0.9049999713897705
      ],
      "min": [
        0.7950000166893005,
        0.8949999809265137
      ],
      "type": "VEC2"
    },
    {
      "bufferView": 1,
      "byteOffset": 11734136,
      "componentType": 5126,
      "count": 6986,
      "max": [
        0.0,
        1.0
      ],
      "min": [
        0.0,
        1.0
      ],
      "type": "VEC2"
    },
    {
      "bufferView": 1,
      "byteOffset": 11790024,
      "componentType": 5126,
      "count": 6986,
      "max": [
        0.9985926151275635,
        0.9972246289253235
      ],
      "min": [
        0.0020964378491044044,
        0.0012710094451904297
      ],
      "type": "VEC2"
    },
    {
      "bufferView": 1,
      "byteOffset": 11845912,
      "componentType": 5126,
      "count": 6986,
      "max": [
        0.9985926151275635,
        0.9972246289253235
      ],
      "min": [
        0.0020964378491044044,
        0.0012710094451904297
      ],
      "type": "VEC2"
    },
    {
      "bufferView": 1,
      "byteOffset": 11901800,
      "componentType": 5126,
      "count": 6986,
      "max": [
        0.9985926151275635,
        0.9972246289253235
      ],
      "min": [
        0.0020964378491044044,
        0.0012710094451904297
      ],
      "type": "VEC2"
    },
    {
      "bufferView": 0,
      "byteOffset": 2917896,
      "componentType": 5125,
      "count": 29982,
      "type": "SCALAR"
    },
    {
      "bufferView": 2,
      "byteOffset": 4936584,
      "componentType": 5126,
      "count": 32,
      "max": [
        -0.10304361581802368,
        1.0221529006958008,
        0.387946218252182
      ],
      "min": [
        -0.14062267541885376,
        0.9375853538513184,
        -0.38838621973991394
      ],
      "type": "VEC3"
    },
    {
      "bufferView": 2,
      "byteOffset": 4936968,
      "componentType": 5126,
      "count": 32,
      "max": [
        -0.9658178091049194,
        0.0078001441434025764,
        0.25910478830337524
      ],
      "min": [
        -0.9658178091049194,
        0.0078001441434025764,
        -0.25910478830337524
      ],
      "type": "VEC3"
    },
    {
      "bufferView": 3,
      "byteOffset": 3290576,
      "componentType": 5126,
      "count": 32,
      "max": [
        0.2590780258178711,
        0.002235289430245757,
        0.9658492803573608,
        -1.0
      ],
      "min": [
        -0.25909528136253357,
        -0.004289958160370588,
        0.9658468961715698,
        -1.0
      ],
      "type": "VEC4"
    },
    {
      "bufferView": 1,
      "byteOffset": 11957688,
      "componentType": 5126,
      "count": 32,
      "max": [
        0.9924776554107666,
        0.6454095244407654
      ],
      "min": [
        0.008792251348495483,
        0.35618358850479126
      ],
      "type": "VEC2"
    },
    {
      "bufferView": 1,
      "byteOffset": 11957944,
      "componentType": 5126,
      "count": 32,
      "max": [
        0.9924776554107666,
        0.6454095244407654
      ],
      "min": [
        0.008792251348495483,
        0.35618358850479126
      ],
      "type": "VEC2"
    },
    {
      "bufferView": 1,
      "byteOffset": 11958200,
      "componentType": 5126,
      "count": 32,
      "max": [
        0.8050000071525574,
        0.9049999713897705
      ],
      "min": [
        0.7950000166893005,
        0.8949999809265137
      ],
      "type": "VEC2"
    },
    {
      "bufferView": 1,
      "byteOffset": 11958456,
      "componentType": 5126,
      "count": 32,
      "max": [
        0.0,
        1.0
      ],
      "min": [
        0.0,
        1.0
      ],
      "type": "VEC2"
    },
    {
      "bufferView": 1,
      "byteOffset": 11958712,
      "componentType": 5126,
      "count": 32,
      "max": [
        0.9924776554107666,
        0.6454095244407654
      ],
      "min": [
        0.008792251348495483,
        0.35618358850479126
      ],
      "type": "VEC2"
    },
    {
      "bufferView": 1,
      "byteOffset": 11958968,
      "componentType": 5126,
      "count": 32,
      "max": [
        0.9924776554107666,
        0.6454095244407654
      ],
      "min": [
        0.008792251348495483,
        0.35618358850479126
      ],
      "type": "VEC2"
    },
    {
      "bufferView": 1,
      "byteOffset": 11959224,
      "componentType": 5126,
      "count": 32,
      "max": [
        0.9924776554107666,
        0.6454095244407654
      ],
      "min": [
        0.008792251348495483,
        0.35618358850479126
      ],
      "type": "VEC2"
    },
    {
      "bufferView": 0,
      "byteOffset": 3037824,
      "componentType": 5125,
      "count": 84,
      "type": "SCALAR"
    },
    {
      "bufferView": 2,
      "byteOffset": 4937352,
      "componentType": 5126,
      "count": 2041,
      "max": [
        -1.070863962173462,
        0.6028375625610352,
        0.2530222237110138
      ],
      "min": [
        -1.418208360671997,
        0.3096499741077423,
        0.1497127115726471
      ],
      "type": "VEC3"
    },
    {
      "bufferView": 2,
      "byteOffset": 4961844,
      "componentType": 5126,
      "count": 2041,
      "max": [
        1.0,
        1.0,
        1.0
      ],
      "min": [
        -1.0,
        -1.0,
        -1.0
      ],
      "type": "VEC3"
    },
    {
      "bufferView": 3,
      "byteOffset": 3291088,
      "componentType": 5126,
      "count": 2041,
      "max": [
        0.9999637007713318,
        0.9999083280563354,
        1.0,
        -1.0
      ],
      "min": [
        -0.9883649349212646,
        -0.9991573691368103,
        -1.0,
        -1.0
      ],
      "type": "VEC4"
    },
    {
      "bufferView": 1,
      "byteOffset": 11959480,
      "componentType": 5126,
      "count": 2041,
      "max": [
        0.9959824085235596,
        0.9981162548065186
      ],
      "min": [
        0.003407716751098633,
        0.004586458206176758
      ],
      "type": "VEC2"
    },
    {
      "bufferView": 1,
      "byteOffset": 11975808,
      "componentType": 5126,
      "count": 2041,
      "max": [
        0.9959824085235596,
        0.9981162548065186
      ],
      "min": [
        0.003407716751098633,
        0.004586458206176758
      ],
      "type": "VEC2"
    },
    {
      "bufferView": 1,
      "byteOffset": 11992136,
      "componentType": 5126,
      "count": 2041,
      "max": [
        0.8050000071525574,
        0.9049999713897705
      ],
      "min": [
        0.7950000166893005,
        0.8949999809265137
      ],
      "type": "VEC2"
    },
    {
      "bufferView": 1,
      "byteOffset": 12008464,
      "componentType": 5126,
      "count": 2041,
      "max": [
        0.0,
        1.0
      ],
      "min": [
        0.0,
        1.0
      ],
      "type": "VEC2"
    },
    {
      "bufferView": 1,
      "byteOffset": 12024792,
      "componentType": 5126,
      "count": 2041,
      "max": [
        0.9959824085235596,
        0.9981162548065186
      ],
      "min": [
        0.003407716751098633,
        0.004586458206176758
      ],
      "type": "VEC2"
    },
    {
      "bufferView": 1,
      "byteOffset": 12041120,
      "componentType": 5126,
      "count": 2041,
      "max": [
        0.9959824085235596,
        0.9981162548065186
      ],
      "min": [
        0.003407716751098633,
        0.004586458206176758
      ],
      "type": "VEC2"
    },
    {
      "bufferView": 1,
      "byteOffset": 12057448,
      "componentType": 5126,
      "count": 2041,
      "max": [
        0.9959824085235596,
        0.9981162548065186
      ],
      "min": [
        0.003407716751098633,
        0.004586458206176758
      ],
      "type": "VEC2"
    },
    {
      "bufferView": 0,
      "byteOffset": 3038160,
      "componentType": 5125,
      "count": 8124,
      "type": "SCALAR"
    },
    {
      "bufferView": 2,
      "byteOffset": 4986336,
      "componentType": 5126,
      "count": 8606,
      "max": [
        0.22441118955612183,
        0.5402581691741943,
        0.08662085235118866
      ],
      "min": [
        -1.5866730213165283,
        0.06668400764465332,
        -0.13573499023914337
      ],
      "type": "VEC3"
    },
    {
      "bufferView": 2,
      "byteOffset": 5089608,
      "componentType": 5126,
      "count": 8606,
      "max": [
        1.0,
        1.0,
        1.0
      ],
      "min": [
        -1.0,
        -1.0,
        -1.0
      ],
      "type": "VEC3"
    },
    {
      "bufferView": 3,
      "byteOffset": 3323744,
      "componentType": 5126,
      "count": 8606,
      "max": [
        1.0,
        1.0,
        1.0,
        -1.0
      ],
      "min": [
        -1.0,
        -1.0,
        -1.0,
        -1.0
      ],
      "type": "VEC4"
    },
    {
      "bufferView": 1,
      "byteOffset": 12073776,
      "componentType": 5126,
      "count": 8606,
      "max": [
        0.9966375827789307,
        0.9977918863296509
      ],
      "min": [
        0.0025691986083984375,
        0.004669189453125
      ],
      "type": "VEC2"
    },
    {
      "bufferView": 1,
      "byteOffset": 12142624,
      "componentType": 5126,
      "count": 8606,
      "max": [
        0.9966375827789307,
        0.9977918863296509
      ],
      "min": [
        0.0025691986083984375,
        0.004669189453125
      ],
      "type": "VEC2"
    },
    {
      "bufferView": 1,
      "byteOffset": 12211472,
      "componentType": 5126,
      "count": 8606,
      "max": [
        0.6050000190734863,
        0.7049999833106995
      ],
      "min": [
        0.5947265625,
        0.69482421875
      ],
      "type": "VEC2"
    },
    {
      "bufferView": 1,
      "byteOffset": 12280320,
      "componentType": 5126,
      "count": 8606,
      "max": [
        0.0,
        1.0
      ],
      "min": [
        0.0,
        1.0
      ],
      "type": "VEC2"
    },
    {
      "bufferView": 1,
      "byteOffset": 12349168,
      "componentType": 5126,
      "count": 8606,
      "max": [
        0.9966375827789307,
        0.9977918863296509
      ],
      "min": [
        0.0025691986083984375,
        0.004669189453125
      ],
      "type": "VEC2"
    },
    {
      "bufferView": 1,
      "byteOffset": 12418016,
      "componentType": 5126,
      "count": 8606,
      "max": [
        0.9966375827789307,
        0.9977918863296509
      ],
      "min": [
        0.0025691986083984375,
        0.004669189453125
      ],
      "type": "VEC2"
    },
    {
      "bufferView": 1,
      "byteOffset": 12486864,
      "componentType": 5126,
      "count": 8606,
      "max": [
        0.9966375827789307,
        0.9977918863296509
      ],
      "min": [
        0.0025691986083984375,
        0.004669189453125
      ],
      "type": "VEC2"
    },
    {
      "bufferView": 0,
      "byteOffset": 3070656,
      "componentType": 5125,
      "count": 29796,
      "type": "SCALAR"
    },
    {
      "bufferView": 2,
      "byteOffset": 5192880,
      "componentType": 5126,
      "count": 1632,
      "max": [
        -1.0414055585861206,
        0.6346880197525024,
        0.09804391115903854
      ],
      "min": [
        -1.6811027526855469,
        -0.005009084939956665,
        -0.0986376628279686
      ],
      "type": "VEC3"
    },
    {
      "bufferView": 2,
      "byteOffset": 5212464,
      "componentType": 5126,
      "count": 1632,
      "max": [
        0.9947224855422974,
        0.9947224855422974,
        0.9936926960945129
      ],
      "min": [
        -0.9947224855422974,
        -0.9947224855422974,
        -0.9938564300537109
      ],
      "type": "VEC3"
    },
    {
      "bufferView": 3,
      "byteOffset": 3461440,
      "componentType": 5126,
      "count": 1632,
      "max": [
        0.9929719567298889,
        0.9929851293563843,
        0.9947443604469299,
        1.0
      ],
      "min": [
        -0.9929861426353455,
        -0.9929854273796082,
        -0.9947742819786072,
        -1.0
      ],
      "type": "VEC4"
    },
    {
      "bufferView": 1,
      "byteOffset": 12555712,
      "componentType": 5126,
      "count": 1632,
      "max": [
        0.9921875,
        0.9921875
      ],
      "min": [
        0.007656097412109375,
        0.007663726806640625
      ],
      "type": "VEC2"
    },
    {
      "bufferView": 1,
      "byteOffset": 12568768,
      "componentType": 5126,
      "count": 1632,
      "max": [
        0.5615234375,
        0.84619140625
      ],
      "min": [
        0.5322265625,
        0.15380859375
      ],
      "type": "VEC2"
    },
    {
      "bufferView": 1,
      "byteOffset": 12581824,
      "componentType": 5126,
      "count": 1632,
      "max": [
        0.599609375,
        0.69970703125
      ],
      "min": [
        0.599609375,
        0.69970703125
      ],
      "type": "VEC2"
    },
    {
      "bufferView": 1,
      "byteOffset": 12594880,
      "componentType": 5126,
      "count": 1632,
      "max": [
        3.0517578125e-05,
        1.0
      ],
      "min": [
        3.0517578125e-05,
        1.0
      ],
      "type": "VEC2"
    },
    {
      "bufferView": 1,
      "byteOffset": 12607936,
      "componentType": 5126,
      "count": 1632,
      "max": [
        0.9921875,
        0.9921875
      ],
      "min": [
        0.007656097412109375,
        0.007663726806640625
      ],
      "type": "VEC2"
    },
    {
      "bufferView": 1,
      "byteOffset": 12620992,
      "componentType": 5126,
      "count": 1632,
      "max": [
        0.9921875,
        0.9921875
      ],
      "min": [
        0.007656097412109375,
        0.007663726806640625
      ],
      "type": "VEC2"
    },
    {
      "bufferView": 1,
      "byteOffset": 12634048,
      "componentType": 5126,
      "count": 1632,
      "max": [
        0.9921875,
        0.9921875
      ],
      "min": [
        0.007656097412109375,
        0.007663726806640625
      ],
      "type": "VEC2"
    },
    {
      "bufferView": 0,
      "byteOffset": 3189840,
      "componentType": 5125,
      "count": 7296,
      "type": "SCALAR"
    },
    {
      "bufferView": 2,
      "byteOffset": 5232048,
      "componentType": 5126,
      "count": 2704,
      "max": [
        0.29109519720077515,
        0.5821828842163086,
        0.058422453701496124
      ],
      "min": [
        -0.29108768701553345,
        0.0,
        -0.05842244625091553
      ],
      "type": "VEC3"
    },
    {
      "bufferView": 2,
      "byteOffset": 5264496,
      "componentType": 5126,
      "count": 2704,
      "max": [
        0.9969140291213989,
        0.9969140291213989,
        0.996366024017334
      ],
      "min": [
        -0.9969140291213989,
        -0.9969140291213989,
        -0.9963738918304443
      ],
      "type": "VEC3"
    },
    {
      "bufferView": 3,
      "byteOffset": 3487552,
      "componentType": 5126,
      "count": 2704,
      "max": [
        0.9959908723831177,
        0.9959996342658997,
        0.9969295263290405,
        1.0
      ],
      "min": [
        -0.9959994554519653,
        -0.9959909915924072,
        -0.9969300627708435,
        -1.0
      ],
      "type": "VEC4"
    },
    {
      "bufferView": 1,
      "byteOffset": 12647104,
      "componentType": 5126,
      "count": 2704,
      "max": [
        0.9921875,
        0.9921875
      ],
      "min": [
        0.007659912109375,
        0.007663726806640625
      ],
      "type": "VEC2"
    },
    {
      "bufferView": 1,
      "byteOffset": 12668736,
      "componentType": 5126,
      "count": 2704,
      "max": [
        0.5615234375,
        0.84619140625
      ],
      "min": [
        0.5322265625,
        0.15380859375
      ],
      "type": "VEC2"
    },
    {
      "bufferView": 1,
      "byteOffset": 12690368,
      "componentType": 5126,
      "count": 2704,
      "max": [
        0.599609375,
        0.69970703125
      ],
      "min": [
        0.599609375,
        0.69970703125
      ],
      "type": "VEC2"
    },
    {
      "bufferView": 1,
      "byteOffset": 12712000,
      "componentType": 5126,
      "count": 2704,
      "max": [
        0.99755859375,
        0.99609375
      ],
      "min": [
        0.00390625,
        0.00390625
      ],
      "type": "VEC2"
    },
    {
      "bufferView": 1,
      "byteOffset": 12733632,
      "componentType": 5126,
      "count": 2704,
      "max": [
        0.9921875,
        0.9921875
      ],
      "min": [
        0.007659912109375,
        0.007663726806640625
      ],
      "type": "VEC2"
    },
    {
      "bufferView": 1,
      "byteOffset": 12755264,
      "componentType": 5126,
      "count": 2704,
      "max": [
        0.9921875,
        0.9921875
      ],
      "min": [
        0.007659912109375,
        0.007663726806640625
      ],
      "type": "VEC2"
    },
    {
      "bufferView": 1,
      "byteOffset": 12776896,
      "componentType": 5126,
      "count": 2704,
      "max": [
        0.9921875,
        0.9921875
      ],
      "min": [
        0.007659912109375,
        0.007663726806640625
      ],
      "type": "VEC2"
    },
    {
      "bufferView": 0,
      "byteOffset": 3219024,
      "componentType": 5125,
      "count": 7296,
      "type": "SCALAR"
    },
    {
      "bufferView": 2,
      "byteOffset": 5296944,
      "componentType": 5126,
      "count": 3672,
      "max": [
        0.15603655576705933,
        0.44712409377098083,
        0.0837431326508522
      ],
      "min": [
        -1.4678049087524414,
        0.13505880534648895,
        -0.06534341722726822
      ],
      "type": "VEC3"
    },
    {
      "bufferView": 2,
      "byteOffset": 5341008,
      "componentType": 5126,
      "count": 3672,
      "max": [
        1.0,
        0.9999688863754272,
        1.0
      ],
      "min": [
        -1.0,
        -0.9999688863754272,
        -1.0
      ],
      "type": "VEC3"
    },
    {
      "bufferView": 3,
      "byteOffset": 3530816,
      "componentType": 5126,
      "count": 3672,
      "max": [
        0.9999688863754272,
        1.0,
        0.007712823338806629,
        1.0
      ],
      "min": [
        -0.9999688267707825,
        -1.0,
        -0.0008059037500061095,
        -1.0
      ],
      "type": "VEC4"
    },
    {
      "bufferView": 1,
      "byteOffset": 12798528,
      "componentType": 5126,
      "count": 3672,
      "max": [
        0.98876953125,
        0.98779296875
      ],
      "min": [
        0.005992889404296875,
        0.0091552734375
      ],
      "type": "VEC2"
    },
    {
      "bufferView": 1,
      "byteOffset": 12827904,
      "componentType": 5126,
      "count": 3672,
      "max": [
        0.98876953125,
        0.98779296875
      ],
      "min": [
        0.005992889404296875,
        0.0091552734375
      ],
      "type": "VEC2"
    },
    {
      "bufferView": 1,
      "byteOffset": 12857280,
      "componentType": 5126,
      "count": 3672,
      "max": [
        0.8046875,
        0.90478515625
      ],
      "min": [
        0.794921875,
        0.89453125
      ],
      "type": "VEC2"
    },
    {
      "bufferView": 1,
      "byteOffset": 12886656,
      "componentType": 5126,
      "count": 3672,
      "max": [
        0.0,
        1.0
      ],
      "min": [
        0.0,
        1.0
      ],
      "type": "VEC2"
    },
    {
      "bufferView": 1,
      "byteOffset": 12916032,
      "componentType": 5126,
      "count": 3672,
      "max": [
        0.98876953125,
        0.98779296875
      ],
      "min": [
        0.005992889404296875,
        0.0091552734375
      ],
      "type": "VEC2"
    },
    {
      "bufferView": 1,
      "byteOffset": 12945408,
      "componentType": 5126,
      "count": 3672,
      "max": [
        0.98876953125,
        0.98779296875
      ],
      "min": [
        0.005992889404296875,
        0.0091552734375
      ],
      "type": "VEC2"
    },
    {
      "bufferView": 1,
      "byteOffset": 12974784,
      "componentType": 5126,
      "count": 3672,
      "max": [
        0.98876953125,
        0.98779296875
      ],
      "min": [
        0.005992889404296875,
        0.0091552734375
      ],
      "type": "VEC2"
    },
    {
      "bufferView": 0,
      "byteOffset": 3248208,
      "componentType": 5125,
      "count": 8988,
      "type": "SCALAR"
    }
  ],
  "asset": {
    "extras": {
      "author": "dragos12_ (https://sketchfab.com/dragos12_)",
      "license": "CC-BY-4.0 (http://creativecommons.org/licenses/by/4.0/)",
      "source": "https://sketchfab.com/3d-models/yamaha-yzf-r1-race-tech-black-8a020dc63e3e41139a4d5eea651bdcbc",
      "title": "Yamaha YZF-R1 RACE Tech Black"
    },
    "generator": "Sketchfab-0.10.0",
    "version": "2.0"
  },
  "bufferViews": [
    {
      "buffer": 0,
      "byteLength": 3284160,
      "name": "floatBufferViews",
      "target": 34963
    },
    {
      "buffer": 0,
      "byteLength": 13004160,
      "byteOffset": 3284160,
      "byteStride": 8,
      "name": "floatBufferViews",
      "target": 34962
    },
    {
      "buffer": 0,
      "byteLength": 5385072,
      "byteOffset": 16288320,
      "byteStride": 12,
      "name": "floatBufferViews",
      "target": 34962
    },
    {
      "buffer": 0,
      "byteLength": 3589568,
      "byteOffset": 21673392,
      "byteStride": 16,
      "name": "floatBufferViews",
      "target": 34962
    }
  ],
  "buffers": [
    {
      "byteLength": 25262960,
      "uri": "scene.bin"
    }
  ],
  "extensionsUsed": [
    "KHR_materials_transmission",
    "KHR_materials_clearcoat"
  ],
  "images": [
    {
      "uri": "textures/mat_bikes_stand_002_baseColor.png"
    },
    {
      "uri": "textures/mat_bikes_stand_002_metallicRoughness.png"
    },
    {
      "uri": "textures/mat_bikes_stand_002_normal.png"
    },
    {
      "uri": "textures/mat_mechanics618_001_baseColor.png"
    },
    {
      "uri": "textures/mat_mechanics618_001_metallicRoughness.png"
    },
    {
      "uri": "textures/mat_mechanics618_001_normal.png"
    },
    {
      "uri": "textures/mat_gear618_baseColor.png"
    },
    {
      "uri": "textures/mat_gear618_metallicRoughness.png"
    },
    {
      "uri": "textures/mat_gear618_normal.png"
    },
    {
      "uri": "textures/mat_glass618_001_baseColor.png"
    },
    {
      "uri": "textures/mat_glass618_001_metallicRoughness.png"
    },
    {
      "uri": "textures/mat_glass618_001_normal.png"
    },
    {
      "uri": "textures/mat_glass618_001_transmission.png"
    },
    {
      "uri": "textures/mat_light618_baseColor.png"
    },
    {
      "uri": "textures/mat_light618_metallicRoughness.png"
    },
    {
      "uri": "textures/mat_light618_emissive.png"
    },
    {
      "uri": "textures/mat_light618_normal.png"
    },
    {
      "uri": "textures/mat_chain_1_001_baseColor.png"
    },
    {
      "uri": "textures/mat_chain_1_001_metallicRoughness.png"
    },
    {
      "uri": "textures/mat_chain_1_001_normal.png"
    },
    {
      "uri": "textures/mat_livery_0_618_001_baseColor.png"
    },
    {
      "uri": "textures/mat_livery_0_618_001_metallicRoughness.png"
    },
    {
      "uri": "textures/mat_livery_0_618_001_normal.png"
    },
    {
      "uri": "textures/mat_livery_0_618_001_clearcoat.png"
    },
    {
      "uri": "textures/mat_gauge618_baseColor.png"
    },
    {
      "uri": "textures/mat_cockpit618_001_baseColor.png"
    },
    {
      "uri": "textures/mat_cockpit618_001_metallicRoughness.png"
    },
    {
      "uri": "textures/mat_cockpit618_001_normal.png"
    },
    {
      "uri": "textures/exmanifold618_001_baseColor.png"
    },
    {
      "uri": "textures/exmanifold618_001_metallicRoughness.png"
    },
    {
      "uri": "textures/exmanifold618_001_normal.png"
    },
    {
      "uri": "textures/mat_mirrorview_baseColor.png"
    },
    {
      "uri": "textures/mat_mirrorview_metallicRoughness.png"
    },
    {
      "uri": "textures/mat_mirrorview_normal.png"
    },
    {
      "uri": "textures/mat_muffler618_001_baseColor.png"
    },
    {
      "uri": "textures/mat_muffler618_001_metallicRoughness.png"
    },
    {
      "uri": "textures/mat_muffler618_001_normal.png"
    },
    {
      "uri": "textures/mat_rim618_001_baseColor.png"
    },
    {
      "uri": "textures/mat_rim618_001_metallicRoughness.png"
    },
    {
      "uri": "textures/mat_rim618_001_normal.png"
    },
    {
      "uri": "textures/mat_backtyre001_baseColor.jpeg"
    },
    {
      "uri": "textures/mat_backtyre001_metallicRoughness.png"
    },
    {
      "uri": "textures/mat_backtyre001_normal.jpeg"
    },
    {
      "uri": "textures/mat_fronttyre001_baseColor.jpeg"
    },
    {
      "uri": "textures/mat_fronttyre001_metallicRoughness.png"
    },
    {
      "uri": "textures/mat_fronttyre001_normal.jpeg"
    },
    {
      "uri": "textures/mat_brake618_baseColor.png"
    },
    {
      "uri": "textures/mat_brake618_metallicRoughness.png"
    },
    {
      "uri": "textures/mat_brake618_normal.png"
    }
  ],
  "materials": [
    {
      "name": "mat_bikes_stand_002",
      "normalTexture": {
        "index": 2,
        "texCoord": 2
      },
      "pbrMetallicRoughness": {
        "baseColorTexture": {
          "index": 0
        },
        "metallicRoughnessTexture": {
          "index": 1,
          "texCoord": 1
        }
      }
    },
    {
      "name": "mat_mechanics618_001",
      "normalTexture": {
        "index": 5,
        "texCoord": 2
      },
      "pbrMetallicRoughness": {
        "baseColorTexture": {
          "index": 3
        },
        "metallicRoughnessTexture": {
          "index": 4,
          "texCoord": 1
        }
      }
    },
    {
      "alphaMode": "BLEND",
      "name": "mat_gear618",
      "normalTexture": {
        "index": 8
      },
      "pbrMetallicRoughness": {
        "baseColorTexture": {
          "index": 6
        },
        "metallicRoughnessTexture": {
          "index": 7
        }
      }
    },
    {
      "alphaMode": "BLEND",
      "extensions": {
        "KHR_materials_transmission": {
          "transmissionFactor": 1.0,
          "transmissionTexture": {
            "index": 12
          }
        }
      },
      "name": "mat_glass618_001",
      "normalTexture": {
        "index": 11
      },
      "pbrMetallicRoughness": {
        "baseColorTexture": {
          "index": 9
        },
        "metallicRoughnessTexture": {
          "index": 10
        }
      }
    },
    {
      "alphaMode": "BLEND",
      "extensions": {
        "KHR_materials_transmission": {
          "transmissionFactor": 1.0,
          "transmissionTexture": {
            "index": 12
          }
        }
      },
      "name": "mat_glasstint618_001",
      "normalTexture": {
        "index": 11
      },
      "pbrMetallicRoughness": {
        "baseColorTexture": {
          "index": 9
        },
        "metallicRoughnessTexture": {
          "index": 10
        }
      }
    },
    {
      "emissiveTexture": {
        "index": 15
      },
      "name": "mat_light618",
      "normalTexture": {
        "index": 16
      },
      "pbrMetallicRoughness": {
        "baseColorTexture": {
          "index": 13
        },
        "metallicRoughnessTexture": {
          "index": 14
        }
      }
    },
    {
      "alphaMode": "BLEND",
      "name": "mat_chain_1_001",
      "normalTexture": {
        "index": 19
      },
      "pbrMetallicRoughness": {
        "baseColorTexture": {
          "index": 17
        },
        "metallicRoughnessTexture": {
          "index": 18
        }
      }
    },
    {
      "alphaMode": "BLEND",
      "extensions": {
        "KHR_materials_transmission": {
          "transmissionFactor": 1.0
        }
      },
      "name": "BASE_glass_edge",
      "normalTexture": {
        "index": 11
      },
      "pbrMetallicRoughness": {
        "baseColorFactor": [
          0.8,
          0.8,
          0.8,
          0.25
        ],
        "metallicRoughnessTexture": {
          "index": 10
        }
      }
    },
    {
      "extensions": {
        "KHR_materials_clearcoat": {
          "clearcoatFactor": 1.0,
          "clearcoatRoughnessFactor": 0.0,
          "clearcoatTexture": {
            "index": 23,
            "texCoord": 3
          }
        }
      },
      "name": "mat_livery_0_618_001",
      "normalTexture": {
        "index": 22,
        "texCoord": 2
      },
      "pbrMetallicRoughness": {
        "baseColorTexture": {
          "index": 20
        },
        "metallicRoughnessTexture": {
          "index": 21,
          "texCoord": 1
        }
      }
    },
    {
      "name": "mat_gauge618",
      "pbrMetallicRoughness": {
        "baseColorTexture": {
          "index": 24
        },
        "metallicFactor": 0.1,
        "roughnessFactor": 0.5
      }
    },
    {
      "name": "mat_cockpit618_001",
      "normalTexture": {
        "index": 27,
        "texCoord": 2
      },
      "pbrMetallicRoughness": {
        "baseColorTexture": {
          "index": 25
        },
        "metallicRoughnessTexture": {
          "index": 26,
          "texCoord": 1
        }
      }
    },
    {
      "name": "exmanifold618_001",
      "normalTexture": {
        "index": 30
      },
      "pbrMetallicRoughness": {
        "baseColorTexture": {
          "index": 28
        },
        "metallicRoughnessTexture": {
          "index": 29
        }
      }
    },
    {
      "name": "mat_mirrorview",
      "normalTexture": {
        "index": 33
      },
      "pbrMetallicRoughness": {
        "baseColorTexture": {
          "index": 31
        },
        "metallicRoughnessTexture": {
          "index": 32
        }
      }
    },
    {
      "name": "mat_muffler618_001",
      "normalTexture": {
        "index": 36
      },
      "pbrMetallicRoughness": {
        "baseColorTexture": {
          "index": 34
        },
        "metallicRoughnessTexture": {
          "index": 35
        }
      }
    },
    {
      "name": "mat_rim618_001",
      "normalTexture": {
        "index": 39
      },
      "pbrMetallicRoughness": {
        "baseColorTexture": {
          "index": 37
        },
        "metallicRoughnessTexture": {
          "index": 38
        }
      }
    },
    {
      "name": "mat_backtyre001",
      "normalTexture": {
        "index": 42
      },
      "pbrMetallicRoughness": {
        "baseColorTexture": {
          "index": 40
        },
        "metallicRoughnessTexture": {
          "index": 41
        }
      }
    },
    {
      "name": "mat_fronttyre001",
      "normalTexture": {
        "index": 45
      },
      "pbrMetallicRoughness": {
        "baseColorTexture": {
          "index": 43
        },
        "metallicRoughnessTexture": {
          "index": 44
        }
      }
    },
    {
      "alphaMode": "BLEND",
      "name": "mat_brake618",
      "normalTexture": {
        "index": 48
      },
      "pbrMetallicRoughness": {
        "baseColorTexture": {
          "index": 46
        },
        "metallicRoughnessTexture": {
          "index": 47
        }
      }
    }
  ],
  "meshes": [
    {
      "name": "Object_0",
      "primitives": [
        {
          "attributes": {
            "NORMAL": 1,
            "POSITION": 0,
            "TANGENT": 2,
            "TEXCOORD_0": 3,
            "TEXCOORD_1": 4,
            "TEXCOORD_2": 5,
            "TEXCOORD_3": 6,
            "TEXCOORD_4": 7
          },
          "indices": 8,
          "material": 0,
          "mode": 4
        }
      ]
    },
    {
      "name": "Object_1",
      "primitives": [
        {
          "attributes": {
            "NORMAL": 10,
            "POSITION": 9,
            "TANGENT": 11,
            "TEXCOORD_0": 12,
            "TEXCOORD_1": 13,
            "TEXCOORD_2": 14,
            "TEXCOORD_3": 15,
            "TEXCOORD_4": 16,
            "TEXCOORD_5": 17,
            "TEXCOORD_6": 18
          },
          "indices": 19,
          "material": 1,
          "mode": 4
        }
      ]
    },
    {
      "name": "Object_2",
      "primitives": [
        {
          "attributes": {
            "NORMAL": 21,
            "POSITION": 20,
            "TANGENT": 22,
            "TEXCOORD_0": 23,
            "TEXCOORD_1": 24,
            "TEXCOORD_2": 25,
            "TEXCOORD_3": 26,
            "TEXCOORD_4": 27,
            "TEXCOORD_5": 28,
            "TEXCOORD_6": 29
          },
          "indices": 30,
          "material": 1,
          "mode": 4
        }
      ]
    },
    {
      "name": "Object_3",
      "primitives": [
        {
          "attributes": {
            "NORMAL": 32,
            "POSITION": 31,
            "TANGENT": 33,
            "TEXCOORD_0": 34,
            "TEXCOORD_1": 35,
            "TEXCOORD_2": 36,
            "TEXCOORD_3": 37,
            "TEXCOORD_4": 38,
            "TEXCOORD_5": 39,
            "TEXCOORD_6": 40
          },
          "indices": 41,
          "material": 2,
          "mode": 4
        }
      ]
    },
    {
      "name": "Object_4",
      "primitives": [
        {
          "attributes": {
            "NORMAL": 43,
            "POSITION": 42,
            "TANGENT": 44,
            "TEXCOORD_0": 45,
            "TEXCOORD_1": 46,
            "TEXCOORD_2": 47,
            "TEXCOORD_3": 48,
            "TEXCOORD_4": 49,
            "TEXCOORD_5": 50,
            "TEXCOORD_6": 51
          },
          "indices": 52,
          "material": 3,
          "mode": 4
        }
      ]
    },
    {
      "name": "Object_5",
      "primitives": [
        {
          "attributes": {
            "NORMAL": 54,
            "POSITION": 53,
            "TANGENT": 55,
            "TEXCOORD_0": 56,
            "TEXCOORD_1": 57,
            "TEXCOORD_2": 58,
            "TEXCOORD_3": 59,
            "TEXCOORD_4": 60,
            "TEXCOORD_5": 61,
            "TEXCOORD_6": 62
          },
          "indices": 63,
          "material": 4,
          "mode": 4
        }
      ]
    },
    {
      "name": "Object_6",
      "primitives": [
        {
          "attributes": {
            "NORMAL": 65,
            "POSITION": 64,
            "TANGENT": 66,
            "TEXCOORD_0": 67,
            "TEXCOORD_1": 68,
            "TEXCOORD_2": 69,
            "TEXCOORD_3": 70,
            "TEXCOORD_4": 71,
            "TEXCOORD_5": 72,
            "TEXCOORD_6": 73,
            "TEXCOORD_7": 74
          },
          "indices": 75,
          "material": 5,
          "mode": 4
        }
      ]
    },
    {
      "name": "Object_7",
      "primitives": [
        {
          "attributes": {
            "NORMAL": 77,
            "POSITION": 76,
            "TANGENT": 78,
            "TEXCOORD_0": 79,
            "TEXCOORD_1": 80,
            "TEXCOORD_2": 81,
            "TEXCOORD_3": 82,
            "TEXCOORD_4": 83,
            "TEXCOORD_5": 84,
            "TEXCOORD_6": 85
          },
          "indices": 86,
          "material": 6,
          "mode": 4
        }
      ]
    },
    {
      "name": "Object_8",
      "primitives": [
        {
          "attributes": {
            "NORMAL": 88,
            "POSITION": 87,
            "TANGENT": 89,
            "TEXCOORD_0": 90,
            "TEXCOORD_1": 91,
            "TEXCOORD_2": 92,
            "TEXCOORD_3": 93,
            "TEXCOORD_4": 94,
            "TEXCOORD_5": 95
          },
          "indices": 96,
          "material": 7,
          "mode": 4
        }
      ]
    },
    {
      "name": "Object_9",
      "primitives": [
        {
          "attributes": {
            "NORMAL": 98,
            "POSITION": 97,
            "TANGENT": 99,
            "TEXCOORD_0": 100,
            "TEXCOORD_1": 101,
            "TEXCOORD_2": 102,
            "TEXCOORD_3": 103,
            "TEXCOORD_4": 104,
            "TEXCOORD_5": 105,
            "TEXCOORD_6": 106,
            "TEXCOORD_7": 107
          },
          "indices": 108,
          "material": 8,
          "mode": 4
        }
      ]
    },
    {
      "name": "Object_10",
      "primitives": [
        {
          "attributes": {
            "NORMAL": 110,
            "POSITION": 109,
            "TEXCOORD_0": 111,
            "TEXCOORD_1": 112,
            "TEXCOORD_2": 113,
            "TEXCOORD_3": 114
          },
          "indices": 115,
          "material": 9,
          "mode": 4
        }
      ]
    },
    {
      "name": "Object_11",
      "primitives": [
        {
          "attributes": {
            "NORMAL": 117,
            "POSITION": 116,
            "TANGENT": 118,
            "TEXCOORD_0": 119,
            "TEXCOORD_1": 120,
            "TEXCOORD_2": 121,
            "TEXCOORD_3": 122,
            "TEXCOORD_4": 123,
            "TEXCOORD_5": 124,
            "TEXCOORD_6": 125
          },
          "indices": 126,
          "material": 10,
          "mode": 4
        }
      ]
    },
    {
      "name": "Object_12",
      "primitives": [
        {
          "attributes": {
            "NORMAL": 128,
            "POSITION": 127,
            "TANGENT": 129,
            "TEXCOORD_0": 130,
            "TEXCOORD_1": 131,
            "TEXCOORD_2": 132,
            "TEXCOORD_3": 133,
            "TEXCOORD_4": 134,
            "TEXCOORD_5": 135,
            "TEXCOORD_6": 136
          },
          "indices": 137,
          "material": 11,
          "mode": 4
        }
      ]
    },
    {
      "name": "Object_13",
      "primitives": [
        {
          "attributes": {
            "NORMAL": 139,
            "POSITION": 138,
            "TANGENT": 140,
            "TEXCOORD_0": 141,
            "TEXCOORD_1": 142,
            "TEXCOORD_2": 143,
            "TEXCOORD_3": 144,
            "TEXCOORD_4": 145,
            "TEXCOORD_5": 146,
            "TEXCOORD_6": 147
          },
          "indices": 148,
          "material": 12,
          "mode": 4
        }
      ]
    },
    {
      "name": "Object_14",
      "primitives": [
        {
          "attributes": {
            "NORMAL": 150,
            "POSITION": 149,
            "TANGENT": 151,
            "TEXCOORD_0": 152,
            "TEXCOORD_1": 153,
            "TEXCOORD_2": 154,
            "TEXCOORD_3": 155,
            "TEXCOORD_4": 156,
            "TEXCOORD_5": 157,
            "TEXCOORD_6": 158
          },
          "indices": 159,
          "material": 13,
          "mode": 4
        }
      ]
    },
    {
      "name": "Object_15",
      "primitives": [
        {
          "attributes": {
            "NORMAL": 161,
            "POSITION": 160,
            "TANGENT": 162,
            "TEXCOORD_0": 163,
            "TEXCOORD_1": 164,
            "TEXCOORD_2": 165,
            "TEXCOORD_3": 166,
            "TEXCOORD_4": 167,
            "TEXCOORD_5": 168,
            "TEXCOORD_6": 169
          },
          "indices": 170,
          "material": 14,
          "mode": 4
        }
      ]
    },
    {
      "name": "Object_16",
      "primitives": [
        {
          "attributes": {
            "NORMAL": 172,
            "POSITION": 171,
            "TANGENT": 173,
            "TEXCOORD_0": 174,
            "TEXCOORD_1": 175,
            "TEXCOORD_2": 176,
            "TEXCOORD_3": 177,
            "TEXCOORD_4": 178,
            "TEXCOORD_5": 179,
            "TEXCOORD_6": 180
          },
          "indices": 181,
          "material": 15,
          "mode": 4
        }
      ]
    },
    {
      "name": "Object_17",
      "primitives": [
        {
          "attributes": {
            "NORMAL": 183,
            "POSITION": 182,
            "TANGENT": 184,
            "TEXCOORD_0": 185,
            "TEXCOORD_1": 186,
            "TEXCOORD_2": 187,
            "TEXCOORD_3": 188,
            "TEXCOORD_4": 189,
            "TEXCOORD_5": 190,
            "TEXCOORD_6": 191
          },
          "indices": 192,
          "material": 16,
          "mode": 4
        }
      ]
    },
    {
      "name": "Object_18",
      "primitives": [
        {
          "attributes": {
            "NORMAL": 194,
            "POSITION": 193,
            "TANGENT": 195,
            "TEXCOORD_0": 196,
            "TEXCOORD_1": 197,
            "TEXCOORD_2": 198,
            "TEXCOORD_3": 199,
            "TEXCOORD_4": 200,
            "TEXCOORD_5": 201,
            "TEXCOORD_6": 202
          },
          "indices": 203,
          "material": 17,
          "mode": 4
        }
      ]
    }
  ],
  "nodes": [
    {
      "children": [
        1
      ],
      "matrix": [
        1.0,
        0.0,
        0.0,
        0.0,
        0.0,
        2.220446049250313e-16,
        -1.0,
        0.0,
        0.0,
        1.0,
        2.220446049250313e-16,
        0.0,
        0.0,
        0.0,
        0.0,
        1.0
      ],
      "name": "Sketchfab_model"
    },
    {
      "children": [
        2
      ],
      "name": "root"
    },
    {
      "children": [
        3,
        6
      ],
      "matrix": [
        1.0,
        0.0,
        0.0,
        0.0,
        0.0,
        2.220446049250313e-16,
        1.0,
        0.0,
        0.0,
        -1.0,
        2.220446049250313e-16,
        0.0,
        0.0,
        0.0,
        0.0,
        1.0
      ],
      "name": "GLTF_SceneRootNode"
    },
    {
      "children": [
        4
      ],
      "name": "bikestand_19"
    },
    {
      "children": [
        5
      ],
      "matrix": [
        1.0,
        0.0,
        0.0,
        0.0,
        0.0,
        1.0,
        0.0,
        0.0,
        0.0,
        0.0,
        1.0,
        0.0,
        -0.6806299686431885,
        0.0,
        0.0,
        1.0
      ],
      "name": "bikestand.001_15"
    },
    {
      "mesh": 0,
      "name": "Object_5"
    },
    {
      "children": [
        7
      ],
      "name": "chassis618_51"
    },
    {
      "children": [
        8,
        9,
        10,
        11,
        12,
        13,
        14,
        15,
        16,
        17,
        18,
        19,
        20,
        21,
        22,
        23,
        24,
        25
      ],
      "matrix": [
        0.9995601532052183,
        -0.029656367349366993,
        0.0,
        0.0,
        0.029656367349366993,
        0.9995601532052183,
        0.0,
        0.0,
        0.0,
        -0.0,
        1.0,
        0.0,
        0.6826241612434387,
        -1.0171206668019295e-05,
        0.00021999236196279526,
        1.0
      ],
      "name": "chassis618.001_20"
    },
    {
      "mesh": 1,
      "name": "Object_8"
    },
    {
      "mesh": 2,
      "name": "Object_9"
    },
    {
      "mesh": 3,
      "name": "Object_10"
    },
    {
      "mesh": 4,
      "name": "Object_11"
    },
    {
      "mesh": 5,
      "name": "Object_12"
    },
    {
      "mesh": 6,
      "name": "Object_13"
    },
    {
      "mesh": 7,
      "name": "Object_14"
    },
    {
      "mesh": 8,
      "name": "Object_15"
    },
    {
      "mesh": 9,
      "name": "Object_16"
    },
    {
      "mesh": 10,
      "name": "Object_17"
    },
    {
      "mesh": 11,
      "name": "Object_18"
    },
    {
      "mesh": 12,
      "name": "Object_19"
    },
    {
      "mesh": 13,
      "name": "Object_20"
    },
    {
      "mesh": 14,
      "name": "Object_21"
    },
    {
      "mesh": 15,
      "name": "Object_22"
    },
    {
      "mesh": 16,
      "name": "Object_23"
    },
    {
      "mesh": 17,
      "name": "Object_24"
    },
    {
      "mesh": 18,
      "name": "Object_25"
    }
  ],
  "samplers": [
    {
      "magFilter": 9729,
      "minFilter": 9987,
      "wrapS": 10497,
      "wrapT": 10497
    }
  ],
  "scene": 0,
  "scenes": [
    {
      "name": "Sketchfab_Scene",
      "nodes": [
        0
      ]
    }
  ],
  "textures": [
    {
      "sampler": 0,
      "source": 0
    },
    {
      "sampler": 0,
      "source": 1
    },
    {
      "sampler": 0,
      "source": 2
    },
    {
      "sampler": 0,
      "source": 3
    },
    {
      "sampler": 0,
      "source": 4
    },
    {
      "sampler": 0,
      "source": 5
    },
    {
      "sampler": 0,
      "source": 6
    },
    {
      "sampler": 0,
      "source": 7
    },
    {
      "sampler": 0,
      "source": 8
    },
    {
      "sampler": 0,
      "source": 9
    },
    {
      "sampler": 0,
      "source": 10
    },
    {
      "sampler": 0,
      "source": 11
    },
    {
      "sampler": 0,
      "source": 12
    },
    {
      "sampler": 0,
      "source": 13
    },
    {
      "sampler": 0,
      "source": 14
    },
    {
      "sampler": 0,
      "source": 15
    },
    {
      "sampler": 0,
      "source": 16
    },
    {
      "sampler": 0,
      "source": 17
    },
    {
      "sampler": 0,
      "source": 18
    },
    {
      "sampler": 0,
      "source": 19
    },
    {
      "sampler": 0,
      "source": 20
    },
    {
      "sampler": 0,
      "source": 21
    },
    {
      "sampler": 0,
      "source": 22
    },
    {
      "sampler": 0,
      "source": 23
    },
    {
      "sampler": 0,
      "source": 24
    },
    {
      "sampler": 0,
      "source": 25
    },
    {
      "sampler": 0,
      "source": 26
    },
    {
      "sampler": 0,
      "source": 27
    },
    {
      "sampler": 0,
      "source": 28
    },
    {
      "sampler": 0,
      "source": 29
    },
    {
      "sampler": 0,
      "source": 30
    },
    {
      "sampler": 0,
      "source": 31
    },
    {
      "sampler": 0,
      "source": 32
    },
    {
      "sampler": 0,
      "source": 33
    },
    {
      "sampler": 0,
      "source": 34
    },
    {
      "sampler": 0,
      "source": 35
    },
    {
      "sampler": 0,
      "source": 36
    },
    {
      "sampler": 0,
      "source": 37
    },
    {
      "sampler": 0,
      "source": 38
    },
    {
      "sampler": 0,
      "source": 39
    },
    {
      "sampler": 0,
      "source": 40
    },
    {
      "sampler": 0,
      "source": 41
    },
    {
      "sampler": 0,
      "source": 42
    },
    {
      "sampler": 0,
      "source": 43
    },
    {
      "sampler": 0,
      "source": 44
    },
    {
      "sampler": 0,
      "source": 45
    },
    {
      "sampler": 0,
      "source": 46
    },
    {
      "sampler": 0,
      "source": 47
    },
    {
      "sampler": 0,
      "source": 48
    }
  ]
}
