{
  "accessors": [
    {
      "bufferView": 2,
      "componentType": 5126,
      "count": 9987,
      "max": [
        1.2330670356750488,
        0.36292800307273865,
        4.114497184753418
      ],
      "min": [
        -1.2438559532165527,
        -0.4230549931526184,
        2.2449309825897217
      ],
      "type": "VEC3"
    },
    {
      "bufferView": 2,
      "byteOffset": 119844,
      "componentType": 5126,
      "count": 9987,
      "max": [
        0.999988317489624,
        0.9999434947967529,
        0.9999110698699951
      ],
      "min": [
        -0.9999254941940308,
        -0.9998706579208374,
        -1.0
      ],
      "type": "VEC3"
    },
    {
      "bufferView": 1,
      "componentType": 5126,
      "count": 9987,
      "max": [
        0.9926999807357788,
        0.9976000189781189
      ],
      "min": [
        0.0035000001080334187,
        0.0020000000949949026
      ],
      "type": "VEC2"
    },
    {
      "bufferView": 0,
      "componentType": 5125,
      "count": 15525,
      "type": "SCALAR"
    },
    {
      "bufferView": 2,
      "byteOffset": 239688,
      "componentType": 5126,
      "count": 613,
      "max": [
        0.9080439805984497,
        -0.018705999478697777,
        2.4552719593048096
      ],
      "min": [
        -0.9208440184593201,
        -0.31149399280548096,
        2.2565090656280518
      ],
      "type": "VEC3"
    },
    {
      "bufferView": 2,
      "byteOffset": 247044,
      "componentType": 5126,
      "count": 613,
      "max": [
        0.9970712065696716,
        0.9994531273841858,
        0.9996106028556824
      ],
      "min": [
        -0.9940584897994995,
        -0.9986392855644226,
        -0.9669420719146729
      ],
      "type": "VEC3"
    },
    {
      "bufferView": 1,
      "byteOffset": 79896,
      "componentType": 5126,
      "count": 613,
      "max": [
        0.9609379768371582,
        0.6459959745407104
      ],
      "min": [
        0.921875,
        0.6230469942092896
      ],
      "type": "VEC2"
    },
    {
      "bufferView": 0,
      "byteOffset": 62100,
      "componentType": 5125,
      "count": 864,
      "type": "SCALAR"
    },
    {
      "bufferView": 2,
      "byteOffset": 254400,
      "componentType": 5126,
      "count": 8680,
      "max": [
        1.2369070053100586,
        0.5668550133705139,
        4.5127949714660645
      ],
      "min": [
        -1.2050420045852661,
        -0.7250139713287354,
        -0.040125999599695206
      ],
      "type": "VEC3"
    },
    {
      "bufferView": 2,
      "byteOffset": 358560,
      "componentType": 5126,
      "count": 8680,
      "max": [
        0.9999682903289795,
        0.9999957084655762,
        0.9999898672103882
      ],
      "min": [
        -0.9999991655349731,
        -0.9999973773956299,
        -0.9999949932098389
      ],
      "type": "VEC3"
    },
    {
      "bufferView": 1,
      "byteOffset": 84800,
      "componentType": 5126,
      "count": 8680,
      "max": [
        0.9988999962806702,
        -0.0008720000041648746
      ],
      "min": [
        -0.0014260000316426158,
        -0.9994710087776184
      ],
      "type": "VEC2"
    },
    {
      "bufferView": 0,
      "byteOffset": 65556,
      "componentType": 5125,
      "count": 14127,
      "type": "SCALAR"
    },
    {
      "bufferView": 2,
      "byteOffset": 462720,
      "componentType": 5126,
      "count": 3291,
      "max": [
        0.9862620234489441,
        0.6095309853553772,
        4.382400989532471
      ],
      "min": [
        -0.9900929927825928,
        -0.24755099415779114,
        0.5192099809646606
      ],
      "type": "VEC3"
    },
    {
      "bufferView": 2,
      "byteOffset": 502212,
      "componentType": 5126,
      "count": 3291,
      "max": [
        0.9999977350234985,
        0.9848130345344543,
        0.998384952545166
      ],
      "min": [
        -0.9999568462371826,
        -0.9998432993888855,
        -0.9977527856826782
      ],
      "type": "VEC3"
    },
    {
      "bufferView": 1,
      "byteOffset": 154240,
      "componentType": 5126,
      "count": 3291,
      "max": [
        0.9955999851226807,
        -0.004100000020116568
      ],
      "min": [
        0.0013920000055804849,
        -0.9978520274162292
      ],
      "type": "VEC2"
    },
    {
      "bufferView": 0,
      "byteOffset": 122064,
      "componentType": 5125,
      "count": 5688,
      "type": "SCALAR"
    }
  ],
  "asset": {
    "extras": {
      "author": "Pipogame (https://sketchfab.com/joseclaudio162001)",
      "license": "CC-BY-4.0 (http://creativecommons.org/licenses/by/4.0/)",
      "source": "https://sketchfab.com/3d-models/optimus-prime-robot-mode-bumblebee-movie-2b8d52b7149844978b2471c12372e74b",
      "title": "Optimus Prime Robot Mode Bumblebee Movie"
    },
    "generator": "Sketchfab-16.74.0",
    "version": "2.0"
  },
  "bufferViews": [
    {
      "buffer": 0,
      "byteLength": 144816,
      "name": "floatBufferViews",
      "target": 34963
    },
    {
      "buffer": 0,
      "byteLength": 180568,
      "byteOffset": 144816,
      "byteStride": 8,
      "name": "floatBufferViews",
      "target": 34962
    },
    {
      "buffer": 0,
      "byteLength": 541704,
      "byteOffset": 325384,
      "byteStride": 12,
      "name": "floatBufferViews",
      "target": 34962
    }
  ],
  "buffers": [
    {
      "byteLength": 867088,
      "uri": "scene.bin"
    }
  ],
  "images": [
    {
      "uri": "textures/Mat_1_baseColor.png"
    },
    {
      "uri": "textures/Mat_2_baseColor.png"
    },
    {
      "uri": "textures/Mat_3_baseColor.png"
    }
  ],
  "materials": [
    {
      "doubleSided": true,
      "name": "Mat_1",
      "pbrMetallicRoughness": {
        "baseColorTexture": {
          "index": 0
        },
        "metallicFactor": 0.0,
        "roughnessFactor": 0.6
      }
    },
    {
      "doubleSided": true,
      "name": "Mat_2",
      "pbrMetallicRoughness": {
        "baseColorTexture": {
          "index": 1
        },
        "metallicFactor": 0.0,
        "roughnessFactor": 0.6
      }
    },
    {
      "doubleSided": true,
      "name": "Mat_3",
      "pbrMetallicRoughness": {
        "baseColorTexture": {
          "index": 2
        },
        "metallicFactor": 0.0,
        "roughnessFactor": 0.6
      }
    }
  ],
  "meshes": [
    {
      "name": "Object_0",
      "primitives": [
        {
          "attributes": {
            "NORMAL": 1,
            "POSITION": 0,
            "TEXCOORD_0": 2
          },
          "indices": 3,
          "material": 0,
          "mode": 4
        }
      ]
    },
    {
      "name": "Object_1",
      "primitives": [
        {
          "attributes": {
            "NORMAL": 5,
            "POSITION": 4,
            "TEXCOORD_0": 6
          },
          "indices": 7,
          "material": 0,
          "mode": 4
        }
      ]
    },
    {
      "name": "Object_2",
      "primitives": [
        {
          "attributes": {
            "NORMAL": 9,
            "POSITION": 8,
            "TEXCOORD_0": 10
          },
          "indices": 11,
          "material": 1,
          "mode": 4
        }
      ]
    },
    {
      "name": "Object_3",
      "primitives": [
        {
          "attributes": {
            "NORMAL": 13,
            "POSITION": 12,
            "TEXCOORD_0": 14
          },
          "indices": 15,
          "material": 2,
          "mode": 4
        }
      ]
    }
  ],
  "nodes": [
    {
      "children": [
        1
      ],
      "matrix": [
        1.0,
        0.0,
        0.0,
        0.0,
        0.0,
        2.220446049250313e-16,
        -1.0,
        0.0,
        0.0,
        1.0,
        2.220446049250313e-16,
        0.0,
        0.0,
        0.0,
        0.0,
        1.0
      ],
      "name": "Sketchfab_model"
    },
    {
      "children": [
        2,
        3,
        4,
        5
      ],
      "name": "Optimus Prime Robot Mode Bumblebee Movie.obj.cleaner.materialmerger.gles"
    },
    {
      "mesh": 0,
      "name": "Object_2"
    },
    {
      "mesh": 1,
      "name": "Object_3"
    },
    {
      "mesh": 2,
      "name": "Object_4"
    },
    {
      "mesh": 3,
      "name": "Object_5"
    }
  ],
  "samplers": [
    {
      "magFilter": 9729,
      "minFilter": 9987,
      "wrapS": 10497,
      "wrapT": 10497
    }
  ],
  "scene": 0,
  "scenes": [
    {
      "name": "Sketchfab_Scene",
      "nodes": [
        0
      ]
    }
  ],
  "textures": [
    {
      "sampler": 0,
      "source": 0
    },
    {
      "sampler": 0,
      "source": 1
    },
    {
      "sampler": 0,
      "source": 2
    }
  ]
}
