{
  "accessors": [
    {
      "bufferView": 2,
      "componentType": 5126,
      "count": 2041,
      "max": [
        0.1628965139389038,
        0.46298664808273315,
        0.09630384296178818
      ],
      "min": [
        -1.482398271560669,
        0.13720159232616425,
        -0.06730136275291443
      ],
      "type": "VEC3"
    },
    {
      "bufferView": 2,
      "byteOffset": 24492,
      "componentType": 5126,
      "count": 2041,
      "max": [
        1.0,
        1.0,
        1.0
      ],
      "min": [
        -1.0,
        -1.0,
        -1.0
      ],
      "type": "VEC3"
    },
    {
      "bufferView": 3,
      "componentType": 5126,
      "count": 2041,
      "max": [
        1.0,
        1.0,
        0.00020066500292159617,
        1.0
      ],
      "min": [
        -1.0,
        -1.0,
        -0.00020220463920850307,
        -1.0
      ],
      "type": "VEC4"
    },
    {
      "bufferView": 1,
      "componentType": 5126,
      "count": 2041,
      "max": [
        1.997808575630188,
        0.9988628625869751
      ],
      "min": [
        0.0007616971852257848,
        0.0015502572059631348
      ],
      "type": "VEC2"
    },
    {
      "bufferView": 1,
      "byteOffset": 16328,
      "componentType": 5126,
      "count": 2041,
      "max": [
        1.997808575630188,
        0.9988628625869751
      ],
      "min": [
        0.0007616971852257848,
        0.0015502572059631348
      ],
      "type": "VEC2"
    },
    {
      "bufferView": 1,
      "byteOffset": 32656,
      "componentType": 5126,
      "count": 2041,
      "max": [
        0.800046980381012,
        0.90151047706604
      ],
      "min": [
        0.7976939082145691,
        0.8991568088531494
      ],
      "type": "VEC2"
    },
    {
      "bufferView": 1,
      "byteOffset": 48984,
      "componentType": 5126,
      "count": 2041,
      "max": [
        0.000422011740738526,
        0.9999383687973022
      ],
      "min": [
        2.904580469476059e-05,
        0.9995453357696533
      ],
      "type": "VEC2"
    },
    {
      "bufferView": 0,
      "componentType": 5125,
      "count": 5568,
      "type": "SCALAR"
    },
    {
      "bufferView": 2,
      "byteOffset": 48984,
      "componentType": 5126,
      "count": 65532,
      "max": [
        0.11524653434753418,
        1.0451099872589111,
        0.4050740599632263
      ],
      "min": [
        -1.729088306427002,
        0.14285920560359955,
        -0.40508097410202026
      ],
      "type": "VEC3"
    },
    {
      "bufferView": 2,
      "byteOffset": 835368,
      "componentType": 5126,
      "count": 65532,
      "max": [
        1.0,
        1.0,
        1.0
      ],
      "min": [
        -1.0,
        -1.0,
        -1.0
      ],
      "type": "VEC3"
    },
    {
      "bufferView": 3,
      "byteOffset": 32656,
      "componentType": 5126,
      "count": 65532,
      "max": [
        1.0,
        1.0,
        1.0,
        1.0
      ],
      "min": [
        -1.0,
        -1.0,
        -1.0,
        -1.0
      ],
      "type": "VEC4"
    },
    {
      "bufferView": 1,
      "byteOffset": 65312,
      "componentType": 5126,
      "count": 65532,
      "max": [
        1.9982349872589111,
        2.261150360107422
      ],
      "min": [
        0.0009690627339296043,
        0.0005317926406860352
      ],
      "type": "VEC2"
    },
    {
      "bufferView": 1,
      "byteOffset": 589568,
      "componentType": 5126,
      "count": 65532,
      "max": [
        4.999269485473633,
        0.9989320039749146
      ],
      "min": [
        0.0010890000266954303,
        0.0005317926406860352
      ],
      "type": "VEC2"
    },
    {
      "bufferView": 1,
      "byteOffset": 1113824,
      "componentType": 5126,
      "count": 65532,
      "max": [
        0.8050000071525574,
        0.9049999713897705
      ],
      "min": [
        0.0950000062584877,
        0.09500002861022949
      ],
      "type": "VEC2"
    },
    {
      "bufferView": 1,
      "byteOffset": 1638080,
      "componentType": 5126,
      "count": 65532,
      "max": [
        0.935560405254364,
        2.261150360107422
      ],
      "min": [
        0.0006142230704426765,
        0.997079074382782
      ],
      "type": "VEC2"
    },
    {
      "bufferView": 0,
      "byteOffset": 22272,
      "componentType": 5125,
      "count": 209706,
      "type": "SCALAR"
    },
    {
      "bufferView": 2,
      "byteOffset": 1621752,
      "componentType": 5126,
      "count": 19666,
      "max": [
        0.1145702600479126,
        0.9835593700408936,
        0.22891663014888763
      ],
      "min": [
        -1.446617841720581,
        0.14285920560359955,
        -0.2262367457151413
      ],
      "type": "VEC3"
    },
    {
      "bufferView": 2,
      "byteOffset": 1857744,
      "componentType": 5126,
      "count": 19666,
      "max": [
        1.0,
        1.0,
        1.0
      ],
      "min": [
        -1.0,
        -1.0,
        -1.0
      ],
      "type": "VEC3"
    },
    {
      "bufferView": 3,
      "byteOffset": 1081168,
      "componentType": 5126,
      "count": 19666,
      "max": [
        1.0,
        0.9998952150344849,
        1.0,
        1.0
      ],
      "min": [
        -1.0,
        -0.9997156858444214,
        -1.0,
        -1.0
      ],
      "type": "VEC4"
    },
    {
      "bufferView": 1,
      "byteOffset": 2162336,
      "componentType": 5126,
      "count": 19666,
      "max": [
        1.9991095066070557,
        2.2586278915405273
      ],
      "min": [
        0.0010890000266954303,
        0.0008810758590698242
      ],
      "type": "VEC2"
    },
    {
      "bufferView": 1,
      "byteOffset": 2319664,
      "componentType": 5126,
      "count": 19666,
      "max": [
        4.999109268188477,
        0.9989110231399536
      ],
      "min": [
        4.001089096069336,
        0.0008810758590698242
      ],
      "type": "VEC2"
    },
    {
      "bufferView": 1,
      "byteOffset": 2476992,
      "componentType": 5126,
      "count": 19666,
      "max": [
        0.8050000071525574,
        0.9049999713897705
      ],
      "min": [
        0.0950000062584877,
        0.09500002861022949
      ],
      "type": "VEC2"
    },
    {
      "bufferView": 1,
      "byteOffset": 2634320,
      "componentType": 5126,
      "count": 19666,
      "max": [
        0.8933420777320862,
        2.2586278915405273
      ],
      "min": [
        0.0006144614890217781,
        0.9970799684524536
      ],
      "type": "VEC2"
    },
    {
      "bufferView": 0,
      "byteOffset": 861096,
      "componentType": 5125,
      "count": 67308,
      "type": "SCALAR"
    },
    {
      "bufferView": 2,
      "byteOffset": 2093736,
      "componentType": 5126,
      "count": 108,
      "max": [
        -0.6961885690689087,
        0.48189112544059753,
        -0.09802471101284027
      ],
      "min": [
        -1.4913718700408936,
        0.1911901980638504,
        -0.11041964590549469
      ],
      "type": "VEC3"
    },
    {
      "bufferView": 2,
      "byteOffset": 2095032,
      "componentType": 5126,
      "count": 108,
      "max": [
        0.0,
        0.0,
        1.0
      ],
      "min": [
        0.0,
        0.0,
        -1.0
      ],
      "type": "VEC3"
    },
    {
      "bufferView": 3,
      "byteOffset": 1395824,
      "componentType": 5126,
      "count": 108,
      "max": [
        0.9999940395355225,
        -0.003469793824478984,
        0.0,
        1.0
      ],
      "min": [
        0.9999939203262329,
        -0.003510231152176857,
        0.0,
        -1.0
      ],
      "type": "VEC4"
    },
    {
      "bufferView": 1,
      "byteOffset": 2791648,
      "componentType": 5126,
      "count": 108,
      "max": [
        1.9319416284561157,
        0.9319419860839844
      ],
      "min": [
        0.06805761158466339,
        0.007815241813659668
      ],
      "type": "VEC2"
    },
    {
      "bufferView": 1,
      "byteOffset": 2792512,
      "componentType": 5126,
      "count": 108,
      "max": [
        1.9319416284561157,
        0.9319419860839844
      ],
      "min": [
        0.06805761158466339,
        0.007815241813659668
      ],
      "type": "VEC2"
    },
    {
      "bufferView": 1,
      "byteOffset": 2793376,
      "componentType": 5126,
      "count": 108,
      "max": [
        0.3050000071525574,
        0.7049999833106995
      ],
      "min": [
        0.29500001668930054,
        0.6949999928474426
      ],
      "type": "VEC2"
    },
    {
      "bufferView": 1,
      "byteOffset": 2794240,
      "componentType": 5126,
      "count": 108,
      "max": [
        0.0005231479881331325,
        0.9999675750732422
      ],
      "min": [
        3.5533259506337345e-05,
        0.9994796514511108
      ],
      "type": "VEC2"
    },
    {
      "bufferView": 0,
      "byteOffset": 1130328,
      "componentType": 5125,
      "count": 306,
      "type": "SCALAR"
    },
    {
      "bufferView": 2,
      "byteOffset": 2096328,
      "componentType": 5126,
      "count": 2517,
      "max": [
        0.0598757266998291,
        1.1486365795135498,
        0.3893173933029175
      ],
      "min": [
        -1.6691842079162598,
        0.6737174391746521,
        -0.38977116346359253
      ],
      "type": "VEC3"
    },
    {
      "bufferView": 2,
      "byteOffset": 2126532,
      "componentType": 5126,
      "count": 2517,
      "max": [
        0.9999688863754272,
        0.9995982050895691,
        0.9997214674949646
      ],
      "min": [
        -1.0,
        -0.9967905282974243,
        -0.9997214674949646
      ],
      "type": "VEC3"
    },
    {
      "bufferView": 3,
      "byteOffset": 1397552,
      "componentType": 5126,
      "count": 2517,
      "max": [
        1.0,
        0.9960638284683228,
        1.0,
        1.0
      ],
      "min": [
        -1.0,
        -0.9920802116394043,
        -1.0,
        -1.0
      ],
      "type": "VEC4"
    },
    {
      "bufferView": 1,
      "byteOffset": 2795104,
      "componentType": 5126,
      "count": 2517,
      "max": [
        0.999156653881073,
        0.9945560097694397
      ],
      "min": [
        0.009960999712347984,
        0.0012909770011901855
      ],
      "type": "VEC2"
    },
    {
      "bufferView": 1,
      "byteOffset": 2815240,
      "componentType": 5126,
      "count": 2517,
      "max": [
        2.9991567134857178,
        0.9945560097694397
      ],
      "min": [
        0.009960999712347984,
        0.0012909770011901855
      ],
      "type": "VEC2"
    },
    {
      "bufferView": 1,
      "byteOffset": 2835376,
      "componentType": 5126,
      "count": 2517,
      "max": [
        0.8050000071525574,
        0.9049999713897705
      ],
      "min": [
        0.7950000166893005,
        0.8949999809265137
      ],
      "type": "VEC2"
    },
    {
      "bufferView": 1,
      "byteOffset": 2855512,
      "componentType": 5126,
      "count": 2517,
      "max": [
        0.9701606035232544,
        0.9996675848960876
      ],
      "min": [
        0.00013883589417673647,
        0.1536417007446289
      ],
      "type": "VEC2"
    },
    {
      "bufferView": 0,
      "byteOffset": 1131552,
      "componentType": 5125,
      "count": 9390,
      "type": "SCALAR"
    },
    {
      "bufferView": 2,
      "byteOffset": 2156736,
      "componentType": 5126,
      "count": 1960,
      "max": [
        0.0598757266998291,
        1.1486365795135498,
        0.20281600952148438
      ],
      "min": [
        -1.6073524951934814,
        0.6737174391746521,
        -0.20326979458332062
      ],
      "type": "VEC3"
    },
    {
      "bufferView": 2,
      "byteOffset": 2180256,
      "componentType": 5126,
      "count": 1960,
      "max": [
        0.9999688863754272,
        0.9995982050895691,
        0.9967340230941772
      ],
      "min": [
        -0.9990985989570618,
        -0.9943864941596985,
        -0.9974976181983948
      ],
      "type": "VEC3"
    },
    {
      "bufferView": 3,
      "byteOffset": 1437824,
      "componentType": 5126,
      "count": 1960,
      "max": [
        0.9972476363182068,
        0.9960638284683228,
        1.0,
        1.0
      ],
      "min": [
        -0.9992988109588623,
        -0.9291692972183228,
        -1.0,
        -1.0
      ],
      "type": "VEC4"
    },
    {
      "bufferView": 1,
      "byteOffset": 2875648,
      "componentType": 5126,
      "count": 1960,
      "max": [
        0.999156653881073,
        0.9945560097694397
      ],
      "min": [
        0.014092029072344303,
        0.002129971981048584
      ],
      "type": "VEC2"
    },
    {
      "bufferView": 1,
      "byteOffset": 2891328,
      "componentType": 5126,
      "count": 1960,
      "max": [
        2.9991567134857178,
        0.9945560097694397
      ],
      "min": [
        2.014091968536377,
        0.002129971981048584
      ],
      "type": "VEC2"
    },
    {
      "bufferView": 1,
      "byteOffset": 2907008,
      "componentType": 5126,
      "count": 1960,
      "max": [
        0.8050000071525574,
        0.9049999713897705
      ],
      "min": [
        0.7950000166893005,
        0.8949999809265137
      ],
      "type": "VEC2"
    },
    {
      "bufferView": 1,
      "byteOffset": 2922688,
      "componentType": 5126,
      "count": 1960,
      "max": [
        0.9701606035232544,
        0.9997881650924683
      ],
      "min": [
        5.478545426740311e-05,
        0.1536417007446289
      ],
      "type": "VEC2"
    },
    {
      "bufferView": 0,
      "byteOffset": 1169112,
      "componentType": 5125,
      "count": 8190,
      "type": "SCALAR"
    },
    {
      "bufferView": 2,
      "byteOffset": 2203776,
      "componentType": 5126,
      "count": 3043,
      "max": [
        0.05838429927825928,
        1.0051262378692627,
        0.20169848203659058
      ],
      "min": [
        -1.6010651588439941,
        0.6737174391746521,
        -0.20215196907520294
      ],
      "type": "VEC3"
    },
    {
      "bufferView": 2,
      "byteOffset": 2240292,
      "componentType": 5126,
      "count": 3043,
      "max": [
        1.0,
        0.9957796931266785,
        1.0
      ],
      "min": [
        -0.9696694612503052,
        -0.9990103840827942,
        -1.0
      ],
      "type": "VEC3"
    },
    {
      "bufferView": 3,
      "byteOffset": 1469184,
      "componentType": 5126,
      "count": 3043,
      "max": [
        0.9828295111656189,
        0.9999878406524658,
        1.0,
        1.0
      ],
      "min": [
        -0.9854180812835693,
        -0.9999879002571106,
        -1.0,
        -1.0
      ],
      "type": "VEC4"
    },
    {
      "bufferView": 1,
      "byteOffset": 2938368,
      "componentType": 5126,
      "count": 3043,
      "max": [
        1.9914153814315796,
        0.9964565634727478
      ],
      "min": [
        0.0021973124239593744,
        0.004851222038269043
      ],
      "type": "VEC2"
    },
    {
      "bufferView": 1,
      "byteOffset": 2962712,
      "componentType": 5126,
      "count": 3043,
      "max": [
        3.991415500640869,
        0.9964565634727478
      ],
      "min": [
        3.002197265625,
        0.004851222038269043
      ],
      "type": "VEC2"
    },
    {
      "bufferView": 1,
      "byteOffset": 2987056,
      "componentType": 5126,
      "count": 3043,
      "max": [
        0.8050000071525574,
        0.9049999713897705
      ],
      "min": [
        0.7950000166893005,
        0.8949999809265137
      ],
      "type": "VEC2"
    },
    {
      "bufferView": 1,
      "byteOffset": 3011400,
      "componentType": 5126,
      "count": 3043,
      "max": [
        0.0010095592588186264,
        0.9999353885650635
      ],
      "min": [
        3.943400224670768e-05,
        0.998962938785553
      ],
      "type": "VEC2"
    },
    {
      "bufferView": 0,
      "byteOffset": 1201872,
      "componentType": 5125,
      "count": 10548,
      "type": "SCALAR"
    },
    {
      "bufferView": 2,
      "byteOffset": 2276808,
      "componentType": 5126,
      "count": 53930,
      "max": [
        0.13990557193756104,
        1.076628565788269,
        0.38944488763809204
      ],
      "min": [
        -1.7521469593048096,
        0.13961315155029297,
        -0.389898419380188
      ],
      "type": "VEC3"
    },
    {
      "bufferView": 2,
      "byteOffset": 2923968,
      "componentType": 5126,
      "count": 53930,
      "max": [
        1.0,
        1.0,
        1.0
      ],
      "min": [
        -1.0,
        -1.0,
        -1.0
      ],
      "type": "VEC3"
    },
    {
      "bufferView": 3,
      "byteOffset": 1517872,
      "componentType": 5126,
      "count": 53930,
      "max": [
        1.0,
        0.9999436140060425,
        1.0,
        1.0
      ],
      "min": [
        -1.0,
        -0.9999994039535522,
        -1.0,
        -1.0
      ],
      "type": "VEC4"
    },
    {
      "bufferView": 1,
      "byteOffset": 3035744,
      "componentType": 5126,
      "count": 53930,
      "max": [
        1.3154656887054443,
        1.0
      ],
      "min": [
        0.0,
        0.001061558723449707
      ],
      "type": "VEC2"
    },
    {
      "bufferView": 1,
      "byteOffset": 3467184,
      "componentType": 5126,
      "count": 53930,
      "max": [
        1.3154656887054443,
        0.9989708662033081
      ],
      "min": [
        0.00044921354856342077,
        0.001061558723449707
      ],
      "type": "VEC2"
    },
    {
      "bufferView": 1,
      "byteOffset": 3898624,
      "componentType": 5126,
      "count": 53930,
      "max": [
        0.8003869652748108,
        0.9016695022583008
      ],
      "min": [
        0.0950000062584877,
        0.09500002861022949
      ],
      "type": "VEC2"
    },
    {
      "bufferView": 1,
      "byteOffset": 4330064,
      "componentType": 5126,
      "count": 53930,
      "max": [
        0.9946624040603638,
        1.0
      ],
      "min": [
        -6.94373156875372e-05,
        0.0044915080070495605
      ],
      "type": "VEC2"
    },
    {
      "bufferView": 0,
      "byteOffset": 1244064,
      "componentType": 5125,
      "count": 279333,
      "type": "SCALAR"
    },
    {
      "bufferView": 2,
      "byteOffset": 3571128,
      "componentType": 5126,
      "count": 642,
      "max": [
        -0.6889719367027283,
        0.491647869348526,
        -0.08814799785614014
      ],
      "min": [
        -1.4953579902648926,
        0.18724536895751953,
        -0.11815236508846283
      ],
      "type": "VEC3"
    },
    {
      "bufferView": 2,
      "byteOffset": 3578832,
      "componentType": 5126,
      "count": 642,
      "max": [
        0.9982074499130249,
        0.9997214674949646,
        0.999876856803894
      ],
      "min": [
        -0.9982074499130249,
        -0.9995037913322449,
        -0.999876856803894
      ],
      "type": "VEC3"
    },
    {
      "bufferView": 3,
      "byteOffset": 2380752,
      "componentType": 5126,
      "count": 642,
      "max": [
        0.9998765587806702,
        0.99691241979599,
        0.017558462917804718,
        -1.0
      ],
      "min": [
        -0.9997504949569702,
        -0.9995937347412109,
        -0.01759910397231579,
        -1.0
      ],
      "type": "VEC4"
    },
    {
      "bufferView": 1,
      "byteOffset": 4761504,
      "componentType": 5126,
      "count": 642,
      "max": [
        0.6050000190734863,
        0.40499943494796753
      ],
      "min": [
        0.5950000286102295,
        0.3950003981590271
      ],
      "type": "VEC2"
    },
    {
      "bufferView": 1,
      "byteOffset": 4766640,
      "componentType": 5126,
      "count": 642,
      "max": [
        31.997657775878906,
        0.9516152739524841
      ],
      "min": [
        -25.663728713989258,
        0.018833160400390625
      ],
      "type": "VEC2"
    },
    {
      "bufferView": 1,
      "byteOffset": 4771776,
      "componentType": 5126,
      "count": 642,
      "max": [
        0.6050000190734863,
        0.4049999713897705
      ],
      "min": [
        0.5950000286102295,
        0.39499998092651367
      ],
      "type": "VEC2"
    },
    {
      "bufferView": 1,
      "byteOffset": 4776912,
      "componentType": 5126,
      "count": 642,
      "max": [
        0.0,
        1.0
      ],
      "min": [
        0.0,
        1.0
      ],
      "type": "VEC2"
    },
    {
      "bufferView": 0,
      "byteOffset": 2361396,
      "componentType": 5125,
      "count": 1836,
      "type": "SCALAR"
    },
    {
      "bufferView": 2,
      "byteOffset": 3586536,
      "componentType": 5126,
      "count": 16,
      "max": [
        -0.0010913610458374023,
        1.0663214921951294,
        0.027502387762069702
      ],
      "min": [
        -0.23823320865631104,
        0.9363658428192139,
        -0.12409886717796326
      ],
      "type": "VEC3"
    },
    {
      "bufferView": 2,
      "byteOffset": 3586728,
      "componentType": 5126,
      "count": 16,
      "max": [
        0.794199526309967,
        0.6058084964752197,
        0.773003876209259
      ],
      "min": [
        -0.3944019675254822,
        -0.5027803182601929,
        -0.773003876209259
      ],
      "type": "VEC3"
    },
    {
      "bufferView": 1,
      "byteOffset": 4782048,
      "componentType": 5126,
      "count": 16,
      "max": [
        0.9903804063796997,
        0.8696912527084351
      ],
      "min": [
        0.01299977395683527,
        0.12287604808807373
      ],
      "type": "VEC2"
    },
    {
      "bufferView": 1,
      "byteOffset": 4782176,
      "componentType": 5126,
      "count": 16,
      "max": [
        2.99038028717041,
        0.8696912527084351
      ],
      "min": [
        2.0129997730255127,
        0.12287604808807373
      ],
      "type": "VEC2"
    },
    {
      "bufferView": 1,
      "byteOffset": 4782304,
      "componentType": 5126,
      "count": 16,
      "max": [
        0.8050000071525574,
        0.9049999713897705
      ],
      "min": [
        0.7950000166893005,
        0.8949999809265137
      ],
      "type": "VEC2"
    },
    {
      "bufferView": 1,
      "byteOffset": 4782432,
      "componentType": 5126,
      "count": 16,
      "max": [
        0.0005893547786399722,
        0.9999294877052307
      ],
      "min": [
        4.4435357267502695e-05,
        0.9995131492614746
      ],
      "type": "VEC2"
    },
    {
      "bufferView": 0,
      "byteOffset": 2368740,
      "componentType": 5125,
      "count": 30,
      "type": "SCALAR"
    },
    {
      "bufferView": 2,
      "byteOffset": 3586920,
      "componentType": 5126,
      "count": 108,
      "max": [
        -0.20175445079803467,
        1.148564100265503,
        0.1456068456172943
      ],
      "min": [
        -0.29462432861328125,
        1.0662696361541748,
        -0.14624933898448944
      ],
      "type": "VEC3"
    },
    {
      "bufferView": 2,
      "byteOffset": 3588216,
      "componentType": 5126,
      "count": 108,
      "max": [
        -0.5733836889266968,
        0.8183692097663879,
        0.299407422542572
      ],
      "min": [
        -0.9009137749671936,
        0.3635055422782898,
        -0.29189497232437134
      ],
      "type": "VEC3"
    },
    {
      "bufferView": 3,
      "byteOffset": 2391024,
      "componentType": 5126,
      "count": 108,
      "max": [
        0.5695071816444397,
        0.5309180617332458,
        -0.6370924115180969,
        -1.0
      ],
      "min": [
        -0.5675122141838074,
        -0.5332064628601074,
        -0.9994051456451416,
        -1.0
      ],
      "type": "VEC4"
    },
    {
      "bufferView": 1,
      "byteOffset": 4782560,
      "componentType": 5126,
      "count": 108,
      "max": [
        0.9928383827209473,
        0.6394994258880615
      ],
      "min": [
        0.6526698470115662,
        0.6324077248573303
      ],
      "type": "VEC2"
    },
    {
      "bufferView": 1,
      "byteOffset": 4783424,
      "componentType": 5126,
      "count": 108,
      "max": [
        2.9928383827209473,
        0.6394994258880615
      ],
      "min": [
        2.652669906616211,
        0.6324077248573303
      ],
      "type": "VEC2"
    },
    {
      "bufferView": 1,
      "byteOffset": 4784288,
      "componentType": 5126,
      "count": 108,
      "max": [
        0.7979497909545898,
        0.9049970507621765
      ],
      "min": [
        0.7950000166893005,
        0.9016510248184204
      ],
      "type": "VEC2"
    },
    {
      "bufferView": 1,
      "byteOffset": 4785152,
      "componentType": 5126,
      "count": 108,
      "max": [
        0.0005412633763626218,
        0.9995222091674805
      ],
      "min": [
        0.000401985424105078,
        0.9995193481445313
      ],
      "type": "VEC2"
    },
    {
      "bufferView": 0,
      "byteOffset": 2368860,
      "componentType": 5125,
      "count": 318,
      "type": "SCALAR"
    },
    {
      "bufferView": 2,
      "byteOffset": 3589512,
      "componentType": 5126,
      "count": 182,
      "max": [
        -0.08241748809814453,
        0.9828217029571533,
        0.0594865120947361
      ],
      "min": [
        -0.13344323635101318,
        0.9019118547439575,
        -0.0548052042722702
      ],
      "type": "VEC3"
    },
    {
      "bufferView": 2,
      "byteOffset": 3591696,
      "componentType": 5126,
      "count": 182,
      "max": [
        -0.5682849884033203,
        0.6009635925292969,
        0.06329930573701859
      ],
      "min": [
        -0.8675559759140015,
        -0.8209782242774963,
        -0.031598083674907684
      ],
      "type": "VEC3"
    },
    {
      "bufferView": 1,
      "byteOffset": 4786016,
      "componentType": 5126,
      "count": 182,
      "max": [
        0.9819051623344421,
        0.9144382476806641
      ],
      "min": [
        0.02571399323642254,
        0.03457951545715332
      ],
      "type": "VEC2"
    },
    {
      "bufferView": 1,
      "byteOffset": 4787472,
      "componentType": 5126,
      "count": 182,
      "max": [
        0.9819051623344421,
        0.9144382476806641
      ],
      "min": [
        0.02571399323642254,
        0.03457951545715332
      ],
      "type": "VEC2"
    },
    {
      "bufferView": 1,
      "byteOffset": 4788928,
      "componentType": 5126,
      "count": 182,
      "max": [
        0.8050000071525574,
        0.9049999713897705
      ],
      "min": [
        0.7950000166893005,
        0.8949999809265137
      ],
      "type": "VEC2"
    },
    {
      "bufferView": 1,
      "byteOffset": 4790384,
      "componentType": 5126,
      "count": 182,
      "max": [
        0.0007188984309323132,
        0.9999885559082031
      ],
      "min": [
        1.5755827917018905e-05,
        0.9993415474891663
      ],
      "type": "VEC2"
    },
    {
      "bufferView": 0,
      "byteOffset": 2370132,
      "componentType": 5125,
      "count": 546,
      "type": "SCALAR"
    },
    {
      "bufferView": 2,
      "byteOffset": 3593880,
      "componentType": 5126,
      "count": 24802,
      "max": [
        0.07596981525421143,
        1.0660970211029053,
        0.3449954390525818
      ],
      "min": [
        -0.4225355386734009,
        0.4832365810871124,
        -0.3377531170845032
      ],
      "type": "VEC3"
    },
    {
      "bufferView": 2,
      "byteOffset": 3891504,
      "componentType": 5126,
      "count": 24802,
      "max": [
        0.9999688863754272,
        1.0,
        1.0
      ],
      "min": [
        -1.0,
        -1.0,
        -1.0
      ],
      "type": "VEC3"
    },
    {
      "bufferView": 3,
      "byteOffset": 2392752,
      "componentType": 5126,
      "count": 24802,
      "max": [
        1.0,
        0.9997203350067139,
        1.0,
        1.0
      ],
      "min": [
        -1.0,
        -0.9999709725379944,
        -1.0,
        -1.0
      ],
      "type": "VEC4"
    },
    {
      "bufferView": 1,
      "byteOffset": 4791840,
      "componentType": 5126,
      "count": 24802,
      "max": [
        1.9979681968688965,
        0.9990357160568237
      ],
      "min": [
        -0.0002041537081822753,
        -2.6941299438476563e-05
      ],
      "type": "VEC2"
    },
    {
      "bufferView": 1,
      "byteOffset": 4990256,
      "componentType": 5126,
      "count": 24802,
      "max": [
        1.9991238117218018,
        0.9990357160568237
      ],
      "min": [
        0.9997958540916443,
        -2.6941299438476563e-05
      ],
      "type": "VEC2"
    },
    {
      "bufferView": 1,
      "byteOffset": 5188672,
      "componentType": 5126,
      "count": 24802,
      "max": [
        0.8050000071525574,
        0.9049999713897705
      ],
      "min": [
        0.0950000062584877,
        0.09500002861022949
      ],
      "type": "VEC2"
    },
    {
      "bufferView": 1,
      "byteOffset": 5387088,
      "componentType": 5126,
      "count": 24802,
      "max": [
        0.0016257045790553093,
        0.9998247027397156
      ],
      "min": [
        0.0001360839232802391,
        0.9985105395317078
      ],
      "type": "VEC2"
    },
    {
      "bufferView": 0,
      "byteOffset": 2372316,
      "componentType": 5125,
      "count": 83628,
      "type": "SCALAR"
    },
    {
      "bufferView": 2,
      "byteOffset": 4189128,
      "componentType": 5126,
      "count": 7323,
      "max": [
        0.23116672039031982,
        0.5413563251495361,
        0.12708905339241028
      ],
      "min": [
        -1.6038411855697632,
        0.06893150508403778,
        -0.13907203078269958
      ],
      "type": "VEC3"
    },
    {
      "bufferView": 2,
      "byteOffset": 4277004,
      "componentType": 5126,
      "count": 7323,
      "max": [
        1.0,
        1.0,
        1.0
      ],
      "min": [
        -1.0,
        -1.0,
        -1.0
      ],
      "type": "VEC3"
    },
    {
      "bufferView": 3,
      "byteOffset": 2789584,
      "componentType": 5126,
      "count": 7323,
      "max": [
        1.0,
        1.0,
        1.0,
        1.0
      ],
      "min": [
        -1.0,
        -1.0,
        -1.0,
        -1.0
      ],
      "type": "VEC4"
    },
    {
      "bufferView": 1,
      "byteOffset": 5585504,
      "componentType": 5126,
      "count": 7323,
      "max": [
        1.9766123294830322,
        0.998984158039093
      ],
      "min": [
        0.0010319999419152737,
        0.00177001953125
      ],
      "type": "VEC2"
    },
    {
      "bufferView": 1,
      "byteOffset": 5644088,
      "componentType": 5126,
      "count": 7323,
      "max": [
        1.9823110103607178,
        0.998984158039093
      ],
      "min": [
        0.0010319999419152737,
        0.00177001953125
      ],
      "type": "VEC2"
    },
    {
      "bufferView": 1,
      "byteOffset": 5702672,
      "componentType": 5126,
      "count": 7323,
      "max": [
        0.6050000190734863,
        0.7049999833106995
      ],
      "min": [
        0.5950000286102295,
        0.6949999928474426
      ],
      "type": "VEC2"
    },
    {
      "bufferView": 1,
      "byteOffset": 5761256,
      "componentType": 5126,
      "count": 7323,
      "max": [
        0.0010254154913127422,
        0.9999731779098511
      ],
      "min": [
        3.907782956957817e-05,
        0.9989710450172424
      ],
      "type": "VEC2"
    },
    {
      "bufferView": 0,
      "byteOffset": 2706828,
      "componentType": 5125,
      "count": 25908,
      "type": "SCALAR"
    },
    {
      "bufferView": 2,
      "byteOffset": 4364880,
      "componentType": 5126,
      "count": 1206,
      "max": [
        -0.3537588119506836,
        0.5505170226097107,
        0.12806561589241028
      ],
      "min": [
        -0.8916162252426147,
        0.14550822973251343,
        -0.11488904058933258
      ],
      "type": "VEC3"
    },
    {
      "bufferView": 2,
      "byteOffset": 4379352,
      "componentType": 5126,
      "count": 1206,
      "max": [
        1.0,
        1.0,
        0.9996903538703918
      ],
      "min": [
        -1.0,
        -1.0,
        -0.9992250800132751
      ],
      "type": "VEC3"
    },
    {
      "bufferView": 3,
      "byteOffset": 2906752,
      "componentType": 5126,
      "count": 1206,
      "max": [
        0.9989709854125977,
        0.9999688267707825,
        0.999767005443573,
        1.0
      ],
      "min": [
        -0.9961013197898865,
        -0.9999678730964661,
        -1.0,
        -1.0
      ],
      "type": "VEC4"
    },
    {
      "bufferView": 1,
      "byteOffset": 5819840,
      "componentType": 5126,
      "count": 1206,
      "max": [
        0.9989491105079651,
        0.995948851108551
      ],
      "min": [
        0.0024761767126619816,
        0.002579987049102783
      ],
      "type": "VEC2"
    },
    {
      "bufferView": 1,
      "byteOffset": 5829488,
      "componentType": 5126,
      "count": 1206,
      "max": [
        0.9989491105079651,
        0.995948851108551
      ],
      "min": [
        0.0024761767126619816,
        0.002579987049102783
      ],
      "type": "VEC2"
    },
    {
      "bufferView": 1,
      "byteOffset": 5839136,
      "componentType": 5126,
      "count": 1206,
      "max": [
        0.9989491105079651,
        0.995948851108551
      ],
      "min": [
        0.0024761767126619816,
        0.002579987049102783
      ],
      "type": "VEC2"
    },
    {
      "bufferView": 1,
      "byteOffset": 5848784,
      "componentType": 5126,
      "count": 1206,
      "max": [
        0.9989491105079651,
        0.995948851108551
      ],
      "min": [
        0.0024761767126619816,
        0.002579987049102783
      ],
      "type": "VEC2"
    },
    {
      "bufferView": 1,
      "byteOffset": 5858432,
      "componentType": 5126,
      "count": 1206,
      "max": [
        0.7997355461120605,
        0.9012385010719299
      ],
      "min": [
        0.7977640628814697,
        0.899273157119751
      ],
      "type": "VEC2"
    },
    {
      "bufferView": 1,
      "byteOffset": 5868080,
      "componentType": 5126,
      "count": 1206,
      "max": [
        0.0003888326173182577,
        0.9999388456344604
      ],
      "min": [
        2.921660416177474e-05,
        0.9995803833007813
      ],
      "type": "VEC2"
    },
    {
      "bufferView": 1,
      "byteOffset": 5877728,
      "componentType": 5126,
      "count": 1206,
      "max": [
        0.9989491105079651,
        0.995948851108551
      ],
      "min": [
        0.0024761767126619816,
        0.002579987049102783
      ],
      "type": "VEC2"
    },
    {
      "bufferView": 0,
      "byteOffset": 2810460,
      "componentType": 5125,
      "count": 5010,
      "type": "SCALAR"
    },
    {
      "bufferView": 2,
      "byteOffset": 4393824,
      "componentType": 5126,
      "count": 502,
      "max": [
        -0.008817195892333984,
        1.0113908052444458,
        0.3893173933029175
      ],
      "min": [
        -1.6691842079162598,
        0.7403594255447388,
        -0.38977116346359253
      ],
      "type": "VEC3"
    },
    {
      "bufferView": 2,
      "byteOffset": 4399848,
      "componentType": 5126,
      "count": 502,
      "max": [
        0.9005458950996399,
        0.9887915253639221,
        0.9997214674949646
      ],
      "min": [
        -1.0,
        -0.9967905282974243,
        -0.9997214674949646
      ],
      "type": "VEC3"
    },
    {
      "bufferView": 3,
      "byteOffset": 2926048,
      "componentType": 5126,
      "count": 502,
      "max": [
        1.0,
        0.9920349717140198,
        1.0,
        -1.0
      ],
      "min": [
        -1.0,
        -0.9920802116394043,
        -0.9888116717338562,
        -1.0
      ],
      "type": "VEC4"
    },
    {
      "bufferView": 1,
      "byteOffset": 5887376,
      "componentType": 5126,
      "count": 502,
      "max": [
        0.9942860007286072,
        0.8851500153541565
      ],
      "min": [
        0.009960999712347984,
        0.0012909770011901855
      ],
      "type": "VEC2"
    },
    {
      "bufferView": 1,
      "byteOffset": 5891392,
      "componentType": 5126,
      "count": 502,
      "max": [
        0.9942860007286072,
        0.8851500153541565
      ],
      "min": [
        0.009960999712347984,
        0.0012909770011901855
      ],
      "type": "VEC2"
    },
    {
      "bufferView": 1,
      "byteOffset": 5895408,
      "componentType": 5126,
      "count": 502,
      "max": [
        0.799094557762146,
        0.9008464217185974
      ],
      "min": [
        0.7982359528541565,
        0.9000754356384277
      ],
      "type": "VEC2"
    },
    {
      "bufferView": 1,
      "byteOffset": 5899424,
      "componentType": 5126,
      "count": 502,
      "max": [
        0.0005418560467660427,
        0.9996228218078613
      ],
      "min": [
        0.00013883589417673647,
        0.9992609024047852
      ],
      "type": "VEC2"
    },
    {
      "bufferView": 0,
      "byteOffset": 2830500,
      "componentType": 5125,
      "count": 1362,
      "type": "SCALAR"
    },
    {
      "bufferView": 2,
      "byteOffset": 4405872,
      "componentType": 5126,
      "count": 64,
      "max": [
        -0.08098125457763672,
        1.0420074462890625,
        0.40124738216400146
      ],
      "min": [
        -0.11947929859161377,
        0.9655264616012573,
        -0.40125441551208496
      ],
      "type": "VEC3"
    },
    {
      "bufferView": 2,
      "byteOffset": 4406640,
      "componentType": 5126,
      "count": 64,
      "max": [
        -0.8112131953239441,
        0.35480573773384094,
        0.46531349420547485
      ],
      "min": [
        -0.9767754673957825,
        -0.06309802085161209,
        -0.4657253623008728
      ],
      "type": "VEC3"
    },
    {
      "bufferView": 1,
      "byteOffset": 5903440,
      "componentType": 5126,
      "count": 64,
      "max": [
        0.9878149628639221,
        0.740014910697937
      ],
      "min": [
        0.0033942684531211853,
        0.20419317483901978
      ],
      "type": "VEC2"
    },
    {
      "bufferView": 1,
      "byteOffset": 5903952,
      "componentType": 5126,
      "count": 64,
      "max": [
        0.9878149628639221,
        0.740014910697937
      ],
      "min": [
        0.0033942684531211853,
        0.20419317483901978
      ],
      "type": "VEC2"
    },
    {
      "bufferView": 1,
      "byteOffset": 5904464,
      "componentType": 5126,
      "count": 64,
      "max": [
        0.7993023991584778,
        0.9006604552268982
      ],
      "min": [
        0.7984462380409241,
        0.9001944661140442
      ],
      "type": "VEC2"
    },
    {
      "bufferView": 1,
      "byteOffset": 5904976,
      "componentType": 5126,
      "count": 64,
      "max": [
        0.0009074200061149895,
        0.999981164932251
      ],
      "min": [
        5.1251827244414017e-05,
        0.9995151162147522
      ],
      "type": "VEC2"
    },
    {
      "bufferView": 0,
      "byteOffset": 2835948,
      "componentType": 5125,
      "count": 180,
      "type": "SCALAR"
    },
    {
      "bufferView": 2,
      "byteOffset": 4407408,
      "componentType": 5126,
      "count": 2459,
      "max": [
        -0.8531178832054138,
        0.4802069365978241,
        0.3055684566497803
      ],
      "min": [
        -1.3827738761901855,
        0.20886236429214478,
        0.07050103694200516
      ],
      "type": "VEC3"
    },
    {
      "bufferView": 2,
      "byteOffset": 4436916,
      "componentType": 5126,
      "count": 2459,
      "max": [
        0.9991041421890259,
        0.9997214674949646,
        1.0
      ],
      "min": [
        -0.9991041421890259,
        -0.9932104349136353,
        -1.0
      ],
      "type": "VEC3"
    },
    {
      "bufferView": 3,
      "byteOffset": 2934080,
      "componentType": 5126,
      "count": 2459,
      "max": [
        1.0,
        0.9993537068367004,
        0.9933069348335266,
        -1.0
      ],
      "min": [
        -0.9966908097267151,
        -0.999599039554596,
        -0.9999995827674866,
        -1.0
      ],
      "type": "VEC4"
    },
    {
      "bufferView": 1,
      "byteOffset": 5905488,
      "componentType": 5126,
      "count": 2459,
      "max": [
        1.7288050651550293,
        0.9973580241203308
      ],
      "min": [
        0.0034910000395029783,
        0.0020589828491210938
      ],
      "type": "VEC2"
    },
    {
      "bufferView": 1,
      "byteOffset": 5925160,
      "componentType": 5126,
      "count": 2459,
      "max": [
        1.7288050651550293,
        0.9973580241203308
      ],
      "min": [
        0.0034910000395029783,
        0.0020589828491210938
      ],
      "type": "VEC2"
    },
    {
      "bufferView": 1,
      "byteOffset": 5944832,
      "componentType": 5126,
      "count": 2459,
      "max": [
        1.7288050651550293,
        0.9906701445579529
      ],
      "min": [
        -15.233558654785156,
        -37.47073745727539
      ],
      "type": "VEC2"
    },
    {
      "bufferView": 1,
      "byteOffset": 5964504,
      "componentType": 5126,
      "count": 2459,
      "max": [
        1.7288050651550293,
        1.0
      ],
      "min": [
        -15.233558654785156,
        -37.47073745727539
      ],
      "type": "VEC2"
    },
    {
      "bufferView": 1,
      "byteOffset": 5984176,
      "componentType": 5126,
      "count": 2459,
      "max": [
        1.7288050651550293,
        0.9973580241203308
      ],
      "min": [
        0.0034910000395029783,
        0.0020589828491210938
      ],
      "type": "VEC2"
    },
    {
      "bufferView": 1,
      "byteOffset": 6003848,
      "componentType": 5126,
      "count": 2459,
      "max": [
        1.7288050651550293,
        0.9973580241203308
      ],
      "min": [
        0.0034910000395029783,
        0.0020589828491210938
      ],
      "type": "VEC2"
    },
    {
      "bufferView": 1,
      "byteOffset": 6023520,
      "componentType": 5126,
      "count": 2459,
      "max": [
        1.7288050651550293,
        0.9973580241203308
      ],
      "min": [
        0.0034910000395029783,
        0.0020589828491210938
      ],
      "type": "VEC2"
    },
    {
      "bufferView": 0,
      "byteOffset": 2836668,
      "componentType": 5125,
      "count": 8124,
      "type": "SCALAR"
    },
    {
      "bufferView": 2,
      "byteOffset": 4466424,
      "componentType": 5126,
      "count": 2704,
      "max": [
        0.3000980615615845,
        0.6001885533332825,
        0.060229331254959106
      ],
      "min": [
        -0.3000904321670532,
        0.0,
        -0.060229331254959106
      ],
      "type": "VEC3"
    },
    {
      "bufferView": 2,
      "byteOffset": 4498872,
      "componentType": 5126,
      "count": 2704,
      "max": [
        0.9969140291213989,
        0.9969140291213989,
        0.996366024017334
      ],
      "min": [
        -0.9969140291213989,
        -0.9969140291213989,
        -0.9963738918304443
      ],
      "type": "VEC3"
    },
    {
      "bufferView": 3,
      "byteOffset": 2973424,
      "componentType": 5126,
      "count": 2704,
      "max": [
        0.9959908723831177,
        0.9959994554519653,
        0.9969295859336853,
        1.0
      ],
      "min": [
        -0.9959908723831177,
        -0.9959908127784729,
        -0.9969300627708435,
        -1.0
      ],
      "type": "VEC4"
    },
    {
      "bufferView": 1,
      "byteOffset": 6043192,
      "componentType": 5126,
      "count": 2704,
      "max": [
        0.9921875,
        0.9921875
      ],
      "min": [
        0.007659912109375,
        0.007663726806640625
      ],
      "type": "VEC2"
    },
    {
      "bufferView": 1,
      "byteOffset": 6064824,
      "componentType": 5126,
      "count": 2704,
      "max": [
        0.5615234375,
        0.84619140625
      ],
      "min": [
        0.5322265625,
        0.15380859375
      ],
      "type": "VEC2"
    },
    {
      "bufferView": 1,
      "byteOffset": 6086456,
      "componentType": 5126,
      "count": 2704,
      "max": [
        0.599609375,
        0.69970703125
      ],
      "min": [
        0.599609375,
        0.69970703125
      ],
      "type": "VEC2"
    },
    {
      "bufferView": 1,
      "byteOffset": 6108088,
      "componentType": 5126,
      "count": 2704,
      "max": [
        0.99755859375,
        0.99609375
      ],
      "min": [
        0.00390625,
        0.00390625
      ],
      "type": "VEC2"
    },
    {
      "bufferView": 1,
      "byteOffset": 6129720,
      "componentType": 5126,
      "count": 2704,
      "max": [
        0.9921875,
        0.9921875
      ],
      "min": [
        0.007659912109375,
        0.007663726806640625
      ],
      "type": "VEC2"
    },
    {
      "bufferView": 1,
      "byteOffset": 6151352,
      "componentType": 5126,
      "count": 2704,
      "max": [
        0.9921875,
        0.9921875
      ],
      "min": [
        0.007659912109375,
        0.007663726806640625
      ],
      "type": "VEC2"
    },
    {
      "bufferView": 1,
      "byteOffset": 6172984,
      "componentType": 5126,
      "count": 2704,
      "max": [
        0.9921875,
        0.9921875
      ],
      "min": [
        0.007659912109375,
        0.007663726806640625
      ],
      "type": "VEC2"
    },
    {
      "bufferView": 0,
      "byteOffset": 2869164,
      "componentType": 5125,
      "count": 7296,
      "type": "SCALAR"
    },
    {
      "bufferView": 2,
      "byteOffset": 4531320,
      "componentType": 5126,
      "count": 1632,
      "max": [
        -1.050295352935791,
        0.6327959895133972,
        0.09597046673297882
      ],
      "min": [
        -1.6952807903289795,
        -0.01218944787979126,
        -0.08658640086650848
      ],
      "type": "VEC3"
    },
    {
      "bufferView": 2,
      "byteOffset": 4550904,
      "componentType": 5126,
      "count": 1632,
      "max": [
        0.9947224855422974,
        0.9947224855422974,
        0.9936981201171875
      ],
      "min": [
        -0.9947224855422974,
        -0.9947224855422974,
        -0.9936964511871338
      ],
      "type": "VEC3"
    },
    {
      "bufferView": 3,
      "byteOffset": 3016688,
      "componentType": 5126,
      "count": 1632,
      "max": [
        0.9929837584495544,
        0.9929852485656738,
        0.9947435855865479,
        1.0
      ],
      "min": [
        -0.992986261844635,
        -0.9929854869842529,
        -0.9947641491889954,
        -1.0
      ],
      "type": "VEC4"
    },
    {
      "bufferView": 1,
      "byteOffset": 6194616,
      "componentType": 5126,
      "count": 1632,
      "max": [
        0.9921875,
        0.9921875
      ],
      "min": [
        0.007656097412109375,
        0.007663726806640625
      ],
      "type": "VEC2"
    },
    {
      "bufferView": 1,
      "byteOffset": 6207672,
      "componentType": 5126,
      "count": 1632,
      "max": [
        0.5615234375,
        0.84619140625
      ],
      "min": [
        0.5322265625,
        0.15380859375
      ],
      "type": "VEC2"
    },
    {
      "bufferView": 1,
      "byteOffset": 6220728,
      "componentType": 5126,
      "count": 1632,
      "max": [
        0.599609375,
        0.69970703125
      ],
      "min": [
        0.599609375,
        0.69970703125
      ],
      "type": "VEC2"
    },
    {
      "bufferView": 1,
      "byteOffset": 6233784,
      "componentType": 5126,
      "count": 1632,
      "max": [
        3.0517578125e-05,
        1.0
      ],
      "min": [
        3.0517578125e-05,
        1.0
      ],
      "type": "VEC2"
    },
    {
      "bufferView": 1,
      "byteOffset": 6246840,
      "componentType": 5126,
      "count": 1632,
      "max": [
        0.9921875,
        0.9921875
      ],
      "min": [
        0.007656097412109375,
        0.007663726806640625
      ],
      "type": "VEC2"
    },
    {
      "bufferView": 1,
      "byteOffset": 6259896,
      "componentType": 5126,
      "count": 1632,
      "max": [
        0.9921875,
        0.9921875
      ],
      "min": [
        0.007656097412109375,
        0.007663726806640625
      ],
      "type": "VEC2"
    },
    {
      "bufferView": 1,
      "byteOffset": 6272952,
      "componentType": 5126,
      "count": 1632,
      "max": [
        0.9921875,
        0.9921875
      ],
      "min": [
        0.007656097412109375,
        0.007663726806640625
      ],
      "type": "VEC2"
    },
    {
      "bufferView": 0,
      "byteOffset": 2898348,
      "componentType": 5125,
      "count": 7296,
      "type": "SCALAR"
    },
    {
      "bufferView": 2,
      "byteOffset": 4570488,
      "componentType": 5126,
      "count": 4387,
      "max": [
        0.04554125294089317,
        0.3951154947280884,
        0.2494804412126541
      ],
      "min": [
        -0.5842632055282593,
        0.0,
        -0.24948041141033173
      ],
      "type": "VEC3"
    },
    {
      "bufferView": 2,
      "byteOffset": 4623132,
      "componentType": 5126,
      "count": 4387,
      "max": [
        1.0,
        0.9995918869972229,
        1.0
      ],
      "min": [
        -1.0,
        -0.9999696016311646,
        -1.0
      ],
      "type": "VEC3"
    },
    {
      "bufferView": 3,
      "byteOffset": 3042800,
      "componentType": 5126,
      "count": 4387,
      "max": [
        0.999999463558197,
        0.9999768137931824,
        1.0,
        1.0
      ],
      "min": [
        -0.9999989867210388,
        -1.0,
        -1.0,
        -1.0
      ],
      "type": "VEC4"
    },
    {
      "bufferView": 1,
      "byteOffset": 6286008,
      "componentType": 5126,
      "count": 4387,
      "max": [
        1.9970703125,
        0.9970703125
      ],
      "min": [
        0.0019989013671875,
        0.0031833648681640625
      ],
      "type": "VEC2"
    },
    {
      "bufferView": 1,
      "byteOffset": 6321104,
      "componentType": 5126,
      "count": 4387,
      "max": [
        1.9970703125,
        0.9970703125
      ],
      "min": [
        0.0019989013671875,
        0.0031833648681640625
      ],
      "type": "VEC2"
    },
    {
      "bufferView": 1,
      "byteOffset": 6356200,
      "componentType": 5126,
      "count": 4387,
      "max": [
        1.9970703125,
        0.9970703125
      ],
      "min": [
        0.0019989013671875,
        0.0031833648681640625
      ],
      "type": "VEC2"
    },
    {
      "bufferView": 1,
      "byteOffset": 6391296,
      "componentType": 5126,
      "count": 4387,
      "max": [
        1.015625,
        3.1015625
      ],
      "min": [
        0.0019989013671875,
        -2.10546875
      ],
      "type": "VEC2"
    },
    {
      "bufferView": 1,
      "byteOffset": 6426392,
      "componentType": 5126,
      "count": 4387,
      "max": [
        1.9970703125,
        0.9970703125
      ],
      "min": [
        0.0019989013671875,
        0.0031833648681640625
      ],
      "type": "VEC2"
    },
    {
      "bufferView": 0,
      "byteOffset": 2927532,
      "componentType": 5125,
      "count": 9894,
      "type": "SCALAR"
    }
  ],
  "asset": {
    "extras": {
      "author": "dragos12_ (https://sketchfab.com/dragos12_)",
      "license": "CC-BY-4.0 (http://creativecommons.org/licenses/by/4.0/)",
      "source": "https://sketchfab.com/3d-models/yamaha-yzf-r6-race-3cb4c772d831451ca034fc6274306930",
      "title": "Yamaha YZF-R6 RACE"
    },
    "generator": "Sketchfab-0.13.0",
    "version": "2.0"
  },
  "bufferViews": [
    {
      "buffer": 0,
      "byteLength": 2967108,
      "name": "floatBufferViews",
      "target": 34963
    },
    {
      "buffer": 0,
      "byteLength": 6461488,
      "byteOffset": 2967108,
      "byteStride": 8,
      "name": "floatBufferViews",
      "target": 34962
    },
    {
      "buffer": 0,
      "byteLength": 4675776,
      "byteOffset": 9428596,
      "byteStride": 12,
      "name": "floatBufferViews",
      "target": 34962
    },
    {
      "buffer": 0,
      "byteLength": 3112992,
      "byteOffset": 14104372,
      "byteStride": 16,
      "name": "floatBufferViews",
      "target": 34962
    }
  ],
  "buffers": [
    {
      "byteLength": 17217364,
      "uri": "scene.bin"
    }
  ],
  "extensionsUsed": [
    "KHR_materials_transmission",
    "KHR_materials_clearcoat"
  ],
  "images": [
    {
      "uri": "textures/mat_brake638_baseColor.png"
    },
    {
      "uri": "textures/mat_brake638_metallicRoughness.png"
    },
    {
      "uri": "textures/mat_brake638_normal.png"
    },
    {
      "uri": "textures/mat_mechanics638_001_baseColor.png"
    },
    {
      "uri": "textures/mat_mechanics638_001_metallicRoughness.png"
    },
    {
      "uri": "textures/mat_mechanics638_001_normal.png"
    },
    {
      "uri": "textures/mat_gear638_baseColor.png"
    },
    {
      "uri": "textures/mat_gear638_metallicRoughness.png"
    },
    {
      "uri": "textures/mat_gear638_normal.png"
    },
    {
      "uri": "textures/mat_glasstint638_001_baseColor.png"
    },
    {
      "uri": "textures/mat_glasstint638_001_metallicRoughness.png"
    },
    {
      "uri": "textures/mat_glasstint638_001_normal.png"
    },
    {
      "uri": "textures/mat_glass638_001_baseColor.png"
    },
    {
      "uri": "textures/mat_glass638_001_transmission.png"
    },
    {
      "uri": "textures/mat_light638_baseColor.png"
    },
    {
      "uri": "textures/mat_light638_metallicRoughness.png"
    },
    {
      "uri": "textures/mat_light638_normal.png"
    },
    {
      "uri": "textures/mat_livery_0_638_001_baseColor.png"
    },
    {
      "uri": "textures/mat_livery_0_638_001_metallicRoughness.png"
    },
    {
      "uri": "textures/mat_livery_0_638_001_normal.png"
    },
    {
      "uri": "textures/mat_chain_1_001_baseColor.png"
    },
    {
      "uri": "textures/mat_chain_1_001_metallicRoughness.png"
    },
    {
      "uri": "textures/mat_chain_1_001_normal.png"
    },
    {
      "uri": "textures/mat_glassdecal638_baseColor.png"
    },
    {
      "uri": "textures/mat_gauge638_baseColor.png"
    },
    {
      "uri": "textures/mat_cockpit638_001_baseColor.jpeg"
    },
    {
      "uri": "textures/mat_cockpit638_001_metallicRoughness.png"
    },
    {
      "uri": "textures/mat_cockpit638_001_normal.jpeg"
    },
    {
      "uri": "textures/mat_cockpit638_001_clearcoat.png"
    },
    {
      "uri": "textures/mat_rim638_001_baseColor.png"
    },
    {
      "uri": "textures/mat_rim638_001_metallicRoughness.png"
    },
    {
      "uri": "textures/mat_rim638_001_normal.png"
    },
    {
      "uri": "textures/exmanifold638_638_baseColor.png"
    },
    {
      "uri": "textures/exmanifold638_638_metallicRoughness.png"
    },
    {
      "uri": "textures/exmanifold638_638_normal.png"
    },
    {
      "uri": "textures/mat_mirrorview_baseColor.png"
    },
    {
      "uri": "textures/mat_mirrorview_metallicRoughness.png"
    },
    {
      "uri": "textures/mat_muffler638_001_baseColor.png"
    },
    {
      "uri": "textures/mat_muffler638_001_metallicRoughness.png"
    },
    {
      "uri": "textures/mat_muffler638_001_normal.png"
    },
    {
      "uri": "textures/mat_fronttyre001_baseColor.jpeg"
    },
    {
      "uri": "textures/mat_fronttyre001_metallicRoughness.png"
    },
    {
      "uri": "textures/mat_fronttyre001_normal.jpeg"
    },
    {
      "uri": "textures/mat_backtyre001_baseColor.jpeg"
    },
    {
      "uri": "textures/mat_backtyre001_metallicRoughness.png"
    },
    {
      "uri": "textures/mat_backtyre001_normal.jpeg"
    },
    {
      "uri": "textures/mat_bikes_stand_002_baseColor.png"
    },
    {
      "uri": "textures/mat_bikes_stand_002_metallicRoughness.png"
    },
    {
      "uri": "textures/mat_bikes_stand_002_normal.png"
    }
  ],
  "materials": [
    {
      "alphaMode": "BLEND",
      "name": "mat_brake638",
      "normalTexture": {
        "index": 2
      },
      "pbrMetallicRoughness": {
        "baseColorTexture": {
          "index": 0
        },
        "metallicRoughnessTexture": {
          "index": 1
        }
      }
    },
    {
      "name": "mat_mechanics638_001",
      "normalTexture": {
        "index": 5,
        "texCoord": 1
      },
      "pbrMetallicRoughness": {
        "baseColorTexture": {
          "index": 3
        },
        "metallicRoughnessTexture": {
          "index": 4,
          "texCoord": 1
        }
      }
    },
    {
      "alphaMode": "BLEND",
      "name": "mat_gear638",
      "normalTexture": {
        "index": 8
      },
      "pbrMetallicRoughness": {
        "baseColorTexture": {
          "index": 6
        },
        "metallicRoughnessTexture": {
          "index": 7
        }
      }
    },
    {
      "alphaMode": "BLEND",
      "extensions": {
        "KHR_materials_transmission": {
          "transmissionFactor": 1.0
        }
      },
      "name": "mat_glasstint638_001",
      "normalTexture": {
        "index": 11
      },
      "pbrMetallicRoughness": {
        "baseColorFactor": [
          1.0,
          1.0,
          1.0,
          0.25
        ],
        "baseColorTexture": {
          "index": 9
        },
        "metallicRoughnessTexture": {
          "index": 10
        }
      }
    },
    {
      "alphaMode": "BLEND",
      "extensions": {
        "KHR_materials_transmission": {
          "transmissionFactor": 1.0,
          "transmissionTexture": {
            "index": 13
          }
        }
      },
      "name": "mat_glass638_001",
      "normalTexture": {
        "index": 11
      },
      "pbrMetallicRoughness": {
        "baseColorTexture": {
          "index": 12
        },
        "metallicRoughnessTexture": {
          "index": 10
        }
      }
    },
    {
      "name": "mat_light638",
      "normalTexture": {
        "index": 16,
        "texCoord": 1
      },
      "pbrMetallicRoughness": {
        "baseColorTexture": {
          "index": 14
        },
        "metallicRoughnessTexture": {
          "index": 15,
          "texCoord": 1
        }
      }
    },
    {
      "name": "mat_livery_0_638_001",
      "normalTexture": {
        "index": 19,
        "texCoord": 1
      },
      "pbrMetallicRoughness": {
        "baseColorTexture": {
          "index": 17
        },
        "metallicRoughnessTexture": {
          "index": 18,
          "texCoord": 1
        }
      }
    },
    {
      "alphaMode": "BLEND",
      "name": "mat_chain_1_001",
      "normalTexture": {
        "index": 22
      },
      "pbrMetallicRoughness": {
        "baseColorTexture": {
          "index": 20
        },
        "metallicRoughnessTexture": {
          "index": 21
        }
      }
    },
    {
      "alphaMode": "BLEND",
      "name": "mat_glassdecal638",
      "pbrMetallicRoughness": {
        "baseColorTexture": {
          "index": 23
        },
        "metallicFactor": 0.1,
        "roughnessFactor": 0.5
      }
    },
    {
      "alphaMode": "BLEND",
      "extensions": {
        "KHR_materials_transmission": {
          "transmissionFactor": 1.0
        }
      },
      "name": "BASE_glass_edge",
      "normalTexture": {
        "index": 11
      },
      "pbrMetallicRoughness": {
        "baseColorFactor": [
          1.0,
          1.0,
          1.0,
          0.25
        ],
        "baseColorTexture": {
          "index": 9
        },
        "metallicRoughnessTexture": {
          "index": 10
        }
      }
    },
    {
      "name": "mat_gauge638",
      "pbrMetallicRoughness": {
        "baseColorTexture": {
          "index": 24
        },
        "metallicFactor": 0.1,
        "roughnessFactor": 0.5
      }
    },
    {
      "extensions": {
        "KHR_materials_clearcoat": {
          "clearcoatFactor": 1.0,
          "clearcoatRoughnessFactor": 0.0,
          "clearcoatTexture": {
            "index": 28
          }
        }
      },
      "name": "mat_cockpit638_001",
      "normalTexture": {
        "index": 27
      },
      "pbrMetallicRoughness": {
        "baseColorTexture": {
          "index": 25
        },
        "metallicRoughnessTexture": {
          "index": 26
        }
      }
    },
    {
      "name": "mat_rim638_001",
      "normalTexture": {
        "index": 31
      },
      "pbrMetallicRoughness": {
        "baseColorTexture": {
          "index": 29
        },
        "metallicRoughnessTexture": {
          "index": 30
        }
      }
    },
    {
      "name": "exmanifold638_638",
      "normalTexture": {
        "index": 34,
        "texCoord": 2
      },
      "pbrMetallicRoughness": {
        "baseColorTexture": {
          "index": 32
        },
        "metallicRoughnessTexture": {
          "index": 33,
          "texCoord": 1
        }
      }
    },
    {
      "alphaMode": "BLEND",
      "extensions": {
        "KHR_materials_transmission": {
          "transmissionFactor": 1.0
        }
      },
      "name": "mat_glassDOF638_001",
      "normalTexture": {
        "index": 11
      },
      "pbrMetallicRoughness": {
        "baseColorFactor": [
          1.0,
          1.0,
          1.0,
          0.25
        ],
        "baseColorTexture": {
          "index": 9
        },
        "metallicRoughnessTexture": {
          "index": 10
        }
      }
    },
    {
      "name": "mat_mirrorview",
      "pbrMetallicRoughness": {
        "baseColorTexture": {
          "index": 35
        },
        "metallicRoughnessTexture": {
          "index": 36
        }
      }
    },
    {
      "name": "mat_muffler638_001",
      "normalTexture": {
        "index": 39
      },
      "pbrMetallicRoughness": {
        "baseColorTexture": {
          "index": 37
        },
        "metallicRoughnessTexture": {
          "index": 38
        }
      }
    },
    {
      "name": "mat_fronttyre001",
      "normalTexture": {
        "index": 42
      },
      "pbrMetallicRoughness": {
        "baseColorTexture": {
          "index": 40
        },
        "metallicRoughnessTexture": {
          "index": 41
        }
      }
    },
    {
      "name": "mat_backtyre001",
      "normalTexture": {
        "index": 45
      },
      "pbrMetallicRoughness": {
        "baseColorTexture": {
          "index": 43
        },
        "metallicRoughnessTexture": {
          "index": 44
        }
      }
    },
    {
      "name": "mat_bikes_stand_002",
      "normalTexture": {
        "index": 48,
        "texCoord": 2
      },
      "pbrMetallicRoughness": {
        "baseColorTexture": {
          "index": 46
        },
        "metallicRoughnessTexture": {
          "index": 47,
          "texCoord": 1
        }
      }
    }
  ],
  "meshes": [
    {
      "name": "Object_0",
      "primitives": [
        {
          "attributes": {
            "NORMAL": 1,
            "POSITION": 0,
            "TANGENT": 2,
            "TEXCOORD_0": 3,
            "TEXCOORD_1": 4,
            "TEXCOORD_2": 5,
            "TEXCOORD_3": 6
          },
          "indices": 7,
          "material": 0,
          "mode": 4
        }
      ]
    },
    {
      "name": "Object_1",
      "primitives": [
        {
          "attributes": {
            "NORMAL": 9,
            "POSITION": 8,
            "TANGENT": 10,
            "TEXCOORD_0": 11,
            "TEXCOORD_1": 12,
            "TEXCOORD_2": 13,
            "TEXCOORD_3": 14
          },
          "indices": 15,
          "material": 1,
          "mode": 4
        }
      ]
    },
    {
      "name": "Object_2",
      "primitives": [
        {
          "attributes": {
            "NORMAL": 17,
            "POSITION": 16,
            "TANGENT": 18,
            "TEXCOORD_0": 19,
            "TEXCOORD_1": 20,
            "TEXCOORD_2": 21,
            "TEXCOORD_3": 22
          },
          "indices": 23,
          "material": 1,
          "mode": 4
        }
      ]
    },
    {
      "name": "Object_3",
      "primitives": [
        {
          "attributes": {
            "NORMAL": 25,
            "POSITION": 24,
            "TANGENT": 26,
            "TEXCOORD_0": 27,
            "TEXCOORD_1": 28,
            "TEXCOORD_2": 29,
            "TEXCOORD_3": 30
          },
          "indices": 31,
          "material": 2,
          "mode": 4
        }
      ]
    },
    {
      "name": "Object_4",
      "primitives": [
        {
          "attributes": {
            "NORMAL": 33,
            "POSITION": 32,
            "TANGENT": 34,
            "TEXCOORD_0": 35,
            "TEXCOORD_1": 36,
            "TEXCOORD_2": 37,
            "TEXCOORD_3": 38
          },
          "indices": 39,
          "material": 3,
          "mode": 4
        }
      ]
    },
    {
      "name": "Object_5",
      "primitives": [
        {
          "attributes": {
            "NORMAL": 41,
            "POSITION": 40,
            "TANGENT": 42,
            "TEXCOORD_0": 43,
            "TEXCOORD_1": 44,
            "TEXCOORD_2": 45,
            "TEXCOORD_3": 46
          },
          "indices": 47,
          "material": 4,
          "mode": 4
        }
      ]
    },
    {
      "name": "Object_6",
      "primitives": [
        {
          "attributes": {
            "NORMAL": 49,
            "POSITION": 48,
            "TANGENT": 50,
            "TEXCOORD_0": 51,
            "TEXCOORD_1": 52,
            "TEXCOORD_2": 53,
            "TEXCOORD_3": 54
          },
          "indices": 55,
          "material": 5,
          "mode": 4
        }
      ]
    },
    {
      "name": "Object_7",
      "primitives": [
        {
          "attributes": {
            "NORMAL": 57,
            "POSITION": 56,
            "TANGENT": 58,
            "TEXCOORD_0": 59,
            "TEXCOORD_1": 60,
            "TEXCOORD_2": 61,
            "TEXCOORD_3": 62
          },
          "indices": 63,
          "material": 6,
          "mode": 4
        }
      ]
    },
    {
      "name": "Object_8",
      "primitives": [
        {
          "attributes": {
            "NORMAL": 65,
            "POSITION": 64,
            "TANGENT": 66,
            "TEXCOORD_0": 67,
            "TEXCOORD_1": 68,
            "TEXCOORD_2": 69,
            "TEXCOORD_3": 70
          },
          "indices": 71,
          "material": 7,
          "mode": 4
        }
      ]
    },
    {
      "name": "Object_9",
      "primitives": [
        {
          "attributes": {
            "NORMAL": 73,
            "POSITION": 72,
            "TEXCOORD_0": 74,
            "TEXCOORD_1": 75,
            "TEXCOORD_2": 76,
            "TEXCOORD_3": 77
          },
          "indices": 78,
          "material": 8,
          "mode": 4
        }
      ]
    },
    {
      "name": "Object_10",
      "primitives": [
        {
          "attributes": {
            "NORMAL": 80,
            "POSITION": 79,
            "TANGENT": 81,
            "TEXCOORD_0": 82,
            "TEXCOORD_1": 83,
            "TEXCOORD_2": 84,
            "TEXCOORD_3": 85
          },
          "indices": 86,
          "material": 9,
          "mode": 4
        }
      ]
    },
    {
      "name": "Object_11",
      "primitives": [
        {
          "attributes": {
            "NORMAL": 88,
            "POSITION": 87,
            "TEXCOORD_0": 89,
            "TEXCOORD_1": 90,
            "TEXCOORD_2": 91,
            "TEXCOORD_3": 92
          },
          "indices": 93,
          "material": 10,
          "mode": 4
        }
      ]
    },
    {
      "name": "Object_12",
      "primitives": [
        {
          "attributes": {
            "NORMAL": 95,
            "POSITION": 94,
            "TANGENT": 96,
            "TEXCOORD_0": 97,
            "TEXCOORD_1": 98,
            "TEXCOORD_2": 99,
            "TEXCOORD_3": 100
          },
          "indices": 101,
          "material": 11,
          "mode": 4
        }
      ]
    },
    {
      "name": "Object_13",
      "primitives": [
        {
          "attributes": {
            "NORMAL": 103,
            "POSITION": 102,
            "TANGENT": 104,
            "TEXCOORD_0": 105,
            "TEXCOORD_1": 106,
            "TEXCOORD_2": 107,
            "TEXCOORD_3": 108
          },
          "indices": 109,
          "material": 12,
          "mode": 4
        }
      ]
    },
    {
      "name": "Object_14",
      "primitives": [
        {
          "attributes": {
            "NORMAL": 111,
            "POSITION": 110,
            "TANGENT": 112,
            "TEXCOORD_0": 113,
            "TEXCOORD_1": 114,
            "TEXCOORD_2": 115,
            "TEXCOORD_3": 116,
            "TEXCOORD_4": 117,
            "TEXCOORD_5": 118,
            "TEXCOORD_6": 119
          },
          "indices": 120,
          "material": 13,
          "mode": 4
        }
      ]
    },
    {
      "name": "Object_15",
      "primitives": [
        {
          "attributes": {
            "NORMAL": 122,
            "POSITION": 121,
            "TANGENT": 123,
            "TEXCOORD_0": 124,
            "TEXCOORD_1": 125,
            "TEXCOORD_2": 126,
            "TEXCOORD_3": 127
          },
          "indices": 128,
          "material": 14,
          "mode": 4
        }
      ]
    },
    {
      "name": "Object_16",
      "primitives": [
        {
          "attributes": {
            "NORMAL": 130,
            "POSITION": 129,
            "TEXCOORD_0": 131,
            "TEXCOORD_1": 132,
            "TEXCOORD_2": 133,
            "TEXCOORD_3": 134
          },
          "indices": 135,
          "material": 15,
          "mode": 4
        }
      ]
    },
    {
      "name": "Object_17",
      "primitives": [
        {
          "attributes": {
            "NORMAL": 137,
            "POSITION": 136,
            "TANGENT": 138,
            "TEXCOORD_0": 139,
            "TEXCOORD_1": 140,
            "TEXCOORD_2": 141,
            "TEXCOORD_3": 142,
            "TEXCOORD_4": 143,
            "TEXCOORD_5": 144,
            "TEXCOORD_6": 145
          },
          "indices": 146,
          "material": 16,
          "mode": 4
        }
      ]
    },
    {
      "name": "Object_18",
      "primitives": [
        {
          "attributes": {
            "NORMAL": 148,
            "POSITION": 147,
            "TANGENT": 149,
            "TEXCOORD_0": 150,
            "TEXCOORD_1": 151,
            "TEXCOORD_2": 152,
            "TEXCOORD_3": 153,
            "TEXCOORD_4": 154,
            "TEXCOORD_5": 155,
            "TEXCOORD_6": 156
          },
          "indices": 157,
          "material": 17,
          "mode": 4
        }
      ]
    },
    {
      "name": "Object_19",
      "primitives": [
        {
          "attributes": {
            "NORMAL": 159,
            "POSITION": 158,
            "TANGENT": 160,
            "TEXCOORD_0": 161,
            "TEXCOORD_1": 162,
            "TEXCOORD_2": 163,
            "TEXCOORD_3": 164,
            "TEXCOORD_4": 165,
            "TEXCOORD_5": 166,
            "TEXCOORD_6": 167
          },
          "indices": 168,
          "material": 18,
          "mode": 4
        }
      ]
    },
    {
      "name": "Object_20",
      "primitives": [
        {
          "attributes": {
            "NORMAL": 170,
            "POSITION": 169,
            "TANGENT": 171,
            "TEXCOORD_0": 172,
            "TEXCOORD_1": 173,
            "TEXCOORD_2": 174,
            "TEXCOORD_3": 175,
            "TEXCOORD_4": 176
          },
          "indices": 177,
          "material": 19,
          "mode": 4
        }
      ]
    }
  ],
  "nodes": [
    {
      "children": [
        1
      ],
      "matrix": [
        1.0,
        0.0,
        0.0,
        0.0,
        0.0,
        2.220446049250313e-16,
        -1.0,
        0.0,
        0.0,
        1.0,
        2.220446049250313e-16,
        0.0,
        0.0,
        0.0,
        0.0,
        1.0
      ],
      "name": "Sketchfab_model"
    },
    {
      "children": [
        2
      ],
      "name": "root"
    },
    {
      "children": [
        3,
        25
      ],
      "matrix": [
        1.0,
        0.0,
        0.0,
        0.0,
        0.0,
        2.220446049250313e-16,
        1.0,
        0.0,
        0.0,
        -1.0,
        2.220446049250313e-16,
        0.0,
        0.0,
        0.0,
        0.0,
        1.0
      ],
      "name": "GLTF_SceneRootNode"
    },
    {
      "children": [
        4
      ],
      "matrix": [
        1.0,
        0.0,
        0.0,
        0.0,
        0.0,
        1.0,
        0.0,
        0.0,
        0.0,
        0.0,
        1.0,
        0.0,
        -0.6858963370323181,
        0.294420450925827,
        0.08326667547225952,
        1.0
      ],
      "name": "backbrake638_15"
    },
    {
      "children": [
        5,
        6,
        7,
        8,
        9,
        10,
        11,
        12,
        13,
        14,
        15,
        16,
        17,
        18,
        19,
        20,
        21,
        22,
        23,
        24
      ],
      "matrix": [
        0.9982604679445891,
        -0.058957935335711795,
        -0.0,
        0.0,
        0.058957935335711795,
        0.9982604679445891,
        0.0,
        0.0,
        0.0,
        -0.0,
        1.0,
        0.0,
        1.3852885961532593,
        -0.2949027717113495,
        -0.08303987234830856,
        1.0
      ],
      "name": "backbrake638.001_12"
    },
    {
      "mesh": 0,
      "name": "Object_5"
    },
    {
      "mesh": 1,
      "name": "Object_6"
    },
    {
      "mesh": 2,
      "name": "Object_7"
    },
    {
      "mesh": 3,
      "name": "Object_8"
    },
    {
      "mesh": 4,
      "name": "Object_9"
    },
    {
      "mesh": 5,
      "name": "Object_10"
    },
    {
      "mesh": 6,
      "name": "Object_11"
    },
    {
      "mesh": 7,
      "name": "Object_12"
    },
    {
      "mesh": 8,
      "name": "Object_13"
    },
    {
      "mesh": 9,
      "name": "Object_14"
    },
    {
      "mesh": 10,
      "name": "Object_15"
    },
    {
      "mesh": 11,
      "name": "Object_16"
    },
    {
      "mesh": 12,
      "name": "Object_17"
    },
    {
      "mesh": 13,
      "name": "Object_18"
    },
    {
      "mesh": 14,
      "name": "Object_19"
    },
    {
      "mesh": 15,
      "name": "Object_20"
    },
    {
      "mesh": 16,
      "name": "Object_21"
    },
    {
      "mesh": 17,
      "name": "Object_22"
    },
    {
      "mesh": 18,
      "name": "Object_23"
    },
    {
      "mesh": 19,
      "name": "Object_24"
    },
    {
      "children": [
        26
      ],
      "name": "bikestand_20"
    },
    {
      "children": [
        27
      ],
      "matrix": [
        0.9999487637843092,
        0.010122737091900012,
        0.0,
        0.0,
        -0.010122737091900012,
        0.9999487637843092,
        0.0,
        0.0,
        0.0,
        0.0,
        1.0,
        0.0,
        -0.5554755330085754,
        0.0,
        -0.008800010196864605,
        1.0
      ],
      "name": "bikestand.001_16"
    },
    {
      "mesh": 20,
      "name": "Object_27"
    }
  ],
  "samplers": [
    {
      "magFilter": 9729,
      "minFilter": 9987,
      "wrapS": 10497,
      "wrapT": 10497
    }
  ],
  "scene": 0,
  "scenes": [
    {
      "name": "Sketchfab_Scene",
      "nodes": [
        0
      ]
    }
  ],
  "textures": [
    {
      "sampler": 0,
      "source": 0
    },
    {
      "sampler": 0,
      "source": 1
    },
    {
      "sampler": 0,
      "source": 2
    },
    {
      "sampler": 0,
      "source": 3
    },
    {
      "sampler": 0,
      "source": 4
    },
    {
      "sampler": 0,
      "source": 5
    },
    {
      "sampler": 0,
      "source": 6
    },
    {
      "sampler": 0,
      "source": 7
    },
    {
      "sampler": 0,
      "source": 8
    },
    {
      "sampler": 0,
      "source": 9
    },
    {
      "sampler": 0,
      "source": 10
    },
    {
      "sampler": 0,
      "source": 11
    },
    {
      "sampler": 0,
      "source": 12
    },
    {
      "sampler": 0,
      "source": 13
    },
    {
      "sampler": 0,
      "source": 14
    },
    {
      "sampler": 0,
      "source": 15
    },
    {
      "sampler": 0,
      "source": 16
    },
    {
      "sampler": 0,
      "source": 17
    },
    {
      "sampler": 0,
      "source": 18
    },
    {
      "sampler": 0,
      "source": 19
    },
    {
      "sampler": 0,
      "source": 20
    },
    {
      "sampler": 0,
      "source": 21
    },
    {
      "sampler": 0,
      "source": 22
    },
    {
      "sampler": 0,
      "source": 23
    },
    {
      "sampler": 0,
      "source": 24
    },
    {
      "sampler": 0,
      "source": 25
    },
    {
      "sampler": 0,
      "source": 26
    },
    {
      "sampler": 0,
      "source": 27
    },
    {
      "sampler": 0,
      "source": 28
    },
    {
      "sampler": 0,
      "source": 29
    },
    {
      "sampler": 0,
      "source": 30
    },
    {
      "sampler": 0,
      "source": 31
    },
    {
      "sampler": 0,
      "source": 32
    },
    {
      "sampler": 0,
      "source": 33
    },
    {
      "sampler": 0,
      "source": 34
    },
    {
      "sampler": 0,
      "source": 35
    },
    {
      "sampler": 0,
      "source": 36
    },
    {
      "sampler": 0,
      "source": 37
    },
    {
      "sampler": 0,
      "source": 38
    },
    {
      "sampler": 0,
      "source": 39
    },
    {
      "sampler": 0,
      "source": 40
    },
    {
      "sampler": 0,
      "source": 41
    },
    {
      "sampler": 0,
      "source": 42
    },
    {
      "sampler": 0,
      "source": 43
    },
    {
      "sampler": 0,
      "source": 44
    },
    {
      "sampler": 0,
      "source": 45
    },
    {
      "sampler": 0,
      "source": 46
    },
    {
      "sampler": 0,
      "source": 47
    },
    {
      "sampler": 0,
      "source": 48
    }
  ]
}
